<svg xmlns="http://www.w3.org/2000/svg" version="1.1" xmlns:xlink="http://www.w3.org/1999/xlink" xmlns:svgjs="http://svgjs.dev/svgjs" width="2000" height="555" viewBox="0 0 2000 555"><g transform="matrix(1,0,0,1,-1.2121212121212466,0.024592863161785772)"><svg viewBox="0 0 396 110" data-background-color="#ffffff" preserveAspectRatio="xMidYMid meet" height="555" width="2000" xmlns="http://www.w3.org/2000/svg" xmlns:xlink="http://www.w3.org/1999/xlink"><g id="tight-bounds" transform="matrix(1,0,0,1,0.2400000000000091,-0.004874261167202576)"><svg viewBox="0 0 395.52 110.00974852233439" height="110.00974852233439" width="395.52"><g><svg viewBox="0 0 590.4629980158063 164.23110316409407" height="110.00974852233439" width="395.52"><g></g><g transform="matrix(1,0,0,1,194.94299801580632,0.4085350824977354)"><svg viewBox="0 0 395.52 163.4140329990986" height="163.4140329990986" width="395.52"><g id="textblocktransform"><svg viewBox="0 0 395.52 163.4140329990986" height="163.4140329990986" width="395.52" id="textblock"><g><svg viewBox="0 0 395.52 121.26541257934215" height="121.26541257934215" width="395.52"><g transform="matrix(1,0,0,1,0,0)"><svg width="395.52" viewBox="0.5000000000000036 -36.25 259.95 76.7" height="121.26541257934215" data-palette-color="url(#3d39edf6-3be4-4d65-b4f6-13a19d4ecaba)"><svg></svg><svg></svg><g class="wordmark-text-0" data-fill-palette-color="primary" id="text-0"></g></svg></g></svg></g><g transform="matrix(1,0,0,1,0,134.50175389618)"><svg viewBox="0 0 232.20979199999996 28.912279102918585" height="28.912279102918585" width="232.20979199999996"><g transform="matrix(1,0,0,1,0,0)"><svg width="232.20979199999996" viewBox="0.49 -50.59 572.13 71.24000000000001" height="28.912279102918585" data-palette-color="url(#5fb23639-70c7-45be-9147-d6abf2612471)"></svg></g></svg></g></svg></g></svg></g><g transform="matrix(1,0,0,1,0,0.4085350824977354)"><svg viewBox="0 0 163.4140329990986 163.4140329990986" height="163.4140329990986" width="163.4140329990986"><g><svg xmlns="http://www.w3.org/2000/svg" xmlns:xlink="http://www.w3.org/1999/xlink" version="1.1" x="0" y="0" viewBox="14 14 72 72" enable-background="new 0 0 100 100" xml:space="preserve" height="163.4140329990986" width="163.4140329990986" class="icon-icon-0" data-fill-palette-color="accent" id="icon-0"></svg></g></svg></g></svg></g><defs></defs><mask id="108c0584-8e61-4e97-abfd-51ff0940631e"><g id="SvgjsG1549"><svg viewBox="0 0 395.52 110.00974852233439" height="110.00974852233439" width="395.52"><g><svg viewBox="0 0 590.4629980158063 164.23110316409407" height="110.00974852233439" width="395.52"><g><rect width="5.056282383032059" height="164.23110316409407" x="176.65037431593643" y="0" fill="white" opacity="1" stroke-width="0" stroke="transparent" fill-opacity="1" class="rect-r$-0" rx="1%" id="SvgjsRect1548" data-palette-color="url(#3d39edf6-3be4-4d65-b4f6-13a19d4ecaba)"></rect></g><g transform="matrix(1,0,0,1,194.94299801580632,0.4085350824977354)"><svg viewBox="0 0 395.52 163.4140329990986" height="163.4140329990986" width="395.52"><g id="SvgjsG1547"><svg viewBox="0 0 395.52 163.4140329990986" height="163.4140329990986" width="395.52" id="SvgjsSvg1546"><g><svg viewBox="0 0 395.52 121.26541257934215" height="121.26541257934215" width="395.52"><g transform="matrix(1,0,0,1,0,0)"><svg width="395.52" viewBox="0.5000000000000036 -36.25 259.95 76.7" height="121.26541257934215" data-palette-color="url(#3d39edf6-3be4-4d65-b4f6-13a19d4ecaba)"><svg></svg><svg></svg><g class="wordmark-text-0" data-fill-palette-color="primary" id="SvgjsG1545"><path d="M38.45 0h-11.7l-1.45-4.85h-12.05l-1.45 4.85h-11.3l12.55-34.4h12.85zM19.2-24.8l-3.65 12.25h7.45l-3.6-12.25zM57.95-27.05c0.767 0 1.45 0.09 2.05 0.27 0.6 0.187 0.9 0.297 0.9 0.33v0 8.35h-3.2c-2.067 0-3.557 0.533-4.47 1.6-0.92 1.067-1.38 2.65-1.38 4.75v0 11.75h-9.95v-26.4h8.15l0.65 4c0.6-1.533 1.55-2.693 2.85-3.48 1.3-0.78 2.767-1.17 4.4-1.17zM101.65-27c3 0 5.25 0.857 6.75 2.57 1.5 1.72 2.25 4.163 2.25 7.33v0 17.1h-9.95v-15.9c0-1.133-0.273-2.043-0.82-2.73-0.553-0.68-1.33-1.02-2.33-1.02v0c-1.167 0-2.117 0.4-2.85 1.2-0.733 0.8-1.1 1.783-1.1 2.95v0 15.5h-9.95v-15.9c0-1.133-0.273-2.043-0.82-2.73-0.553-0.68-1.33-1.02-2.33-1.02v0c-1.167 0-2.117 0.4-2.85 1.2-0.733 0.8-1.1 1.783-1.1 2.95v0 15.5h-9.95v-26.4h8.15l0.65 3.95c1-1.4 2.327-2.51 3.98-3.33 1.647-0.813 3.387-1.22 5.22-1.22v0c3.967 0 6.633 1.517 8 4.55v0c1.033-1.4 2.36-2.51 3.98-3.33 1.613-0.813 3.303-1.22 5.07-1.22zM126.9-29.5h-9.95v-6.75h9.95zM126.9 0h-9.95v-26.4h9.95zM151.45-27c3.067 0 5.367 0.85 6.9 2.55 1.533 1.7 2.3 4.15 2.3 7.35v0 17.1h-9.95v-15.9c0-1.133-0.293-2.043-0.88-2.73-0.58-0.68-1.403-1.02-2.47-1.02v0c-1.233 0-2.233 0.4-3 1.2-0.767 0.8-1.15 1.783-1.15 2.95v0 15.5h-9.95v-26.4h8.15l0.65 4c1.033-1.4 2.393-2.517 4.08-3.35 1.68-0.833 3.453-1.25 5.32-1.25zM183.7-35c5.1 0 9.133 1.273 12.1 3.82 2.967 2.553 4.45 6.197 4.45 10.93v0h-10.55c0-2-0.523-3.583-1.57-4.75-1.053-1.167-2.547-1.75-4.48-1.75v0c-2.233 0-3.877 0.7-4.93 2.1-1.047 1.4-1.57 3.35-1.57 5.85v0 3.2c0 2.467 0.523 4.407 1.57 5.82 1.053 1.42 2.663 2.13 4.83 2.13v0c2.133 0 3.75-0.55 4.85-1.65 1.1-1.1 1.65-2.65 1.65-4.65v0h10.2c0 4.7-1.44 8.3-4.32 10.8-2.887 2.5-6.963 3.75-12.23 3.75v0c-5.867 0-10.307-1.5-13.32-4.5-3.02-3-4.53-7.433-4.53-13.3v0c0-5.867 1.51-10.3 4.53-13.3 3.013-3 7.453-4.5 13.32-4.5z" fill="white" fill-rule="nonzero" stroke="none" stroke-width="1" stroke-linecap="butt" stroke-linejoin="miter" stroke-miterlimit="10" stroke-dasharray="" stroke-dashoffset="0" font-family="none" font-weight="none" font-size="none" text-anchor="none" style="mix-blend-mode: normal" opacity="1"></path><path transform="translate(0,39.85)" d="M38.45 0h-11.7l-1.45-4.85h-12.05l-1.45 4.85h-11.3l12.55-34.4h12.85zM19.2-24.8l-3.65 12.25h7.45l-3.6-12.25zM68.7 0h-8.15l-0.65-4c-1.033 1.433-2.39 2.557-4.07 3.37-1.687 0.82-3.463 1.23-5.33 1.23v0c-3.067 0-5.367-0.85-6.9-2.55-1.533-1.7-2.3-4.15-2.3-7.35v0-17.1h9.95v15.9c0 1.133 0.293 2.04 0.88 2.72 0.58 0.687 1.403 1.03 2.47 1.03v0c1.233 0 2.233-0.4 3-1.2 0.767-0.8 1.15-1.783 1.15-2.95v0-15.5h9.95zM86.75-26.4h5.6v6.75h-5.6v10.05c0 1.2 0.2 2.073 0.6 2.62 0.4 0.553 1.133 0.83 2.2 0.83v0h2.8v5.85c-0.8 0.267-1.833 0.483-3.1 0.65-1.267 0.167-2.367 0.25-3.3 0.25v0c-2.933 0-5.193-0.533-6.78-1.6-1.58-1.067-2.37-2.883-2.37-5.45v0-13.2h-3.7v-6.75h4.1l2.15-8h7.4zM110.6-27c4.633 0 8.277 1.173 10.93 3.52 2.647 2.353 3.97 5.78 3.97 10.28v0c0 4.5-1.323 7.923-3.97 10.27-2.653 2.353-6.297 3.53-10.93 3.53v0c-4.633 0-8.267-1.167-10.9-3.5-2.633-2.333-3.95-5.767-3.95-10.3v0c0-4.533 1.317-7.967 3.95-10.3 2.633-2.333 6.267-3.5 10.9-3.5zM110.6-20.25c-3.267 0-4.9 1.883-4.9 5.65v0 2.85c0 3.733 1.633 5.6 4.9 5.6v0c3.3 0 4.95-1.867 4.95-5.6v0-2.85c0-3.767-1.65-5.65-4.95-5.65zM131 0v-34.4h29.75v8.25h-18.7v4.75h16v7.9h-16v5.25h19.05v8.25zM186.6-13.75l9.9 13.75h-11.6l-5-8.3h-0.2l-5.05 8.3h-11.05l10.15-14-9.15-12.4h11.7l4.2 7h0.2l4.2-7h11zM212.55-27c4.833 0 8.527 1.133 11.08 3.4 2.547 2.267 3.82 5.733 3.82 10.4v0 1.7h-19.8c0 1.9 0.427 3.333 1.28 4.3 0.847 0.967 2.187 1.45 4.02 1.45v0c1.667 0 2.893-0.35 3.68-1.05 0.78-0.7 1.17-1.633 1.17-2.8v0h9.65c0 3.2-1.217 5.7-3.65 7.5-2.433 1.8-5.983 2.7-10.65 2.7v0c-4.9 0-8.7-1.143-11.4-3.43-2.7-2.28-4.05-5.737-4.05-10.37v0c0-4.533 1.317-7.967 3.95-10.3 2.633-2.333 6.267-3.5 10.9-3.5zM212.95-20.65c-3.133 0-4.883 1.483-5.25 4.45v0h9.7c0-1.367-0.39-2.45-1.17-3.25-0.787-0.8-1.88-1.2-3.28-1.2zM245.9-27c4.333 0 7.843 0.923 10.53 2.77 2.68 1.853 4.02 4.68 4.02 8.48v0h-9.65c0-3-1.633-4.5-4.9-4.5v0c-3.267 0-4.9 1.883-4.9 5.65v0 2.85c0 3.733 1.7 5.6 5.1 5.6v0c3.4 0 5.1-1.533 5.1-4.6v0h9.25c0 3.833-1.34 6.683-4.02 8.55-2.687 1.867-6.197 2.8-10.53 2.8v0c-4.633 0-8.267-1.167-10.9-3.5-2.633-2.333-3.95-5.767-3.95-10.3v0c0-4.533 1.317-7.967 3.95-10.3 2.633-2.333 6.267-3.5 10.9-3.5z" fill="white" fill-rule="nonzero" stroke="none" stroke-width="1" stroke-linecap="butt" stroke-linejoin="miter" stroke-miterlimit="10" stroke-dasharray="" stroke-dashoffset="0" font-family="none" font-weight="none" font-size="none" text-anchor="none" style="mix-blend-mode: normal" opacity="1"></path></g></svg></g></svg></g><g transform="matrix(1,0,0,1,0,134.50175389618)"><svg viewBox="0 0 232.20979199999996 28.912279102918585" height="28.912279102918585" width="232.20979199999996"><g transform="matrix(1,0,0,1,0,0)"><svg width="232.20979199999996" viewBox="0.49 -50.59 572.13 71.24000000000001" height="28.912279102918585" data-palette-color="url(#5fb23639-70c7-45be-9147-d6abf2612471)"></svg></g></svg></g></svg></g></svg></g><g transform="matrix(1,0,0,1,0,0.4085350824977354)"><svg viewBox="0 0 163.4140329990986 163.4140329990986" height="163.4140329990986" width="163.4140329990986"><g><svg xmlns="http://www.w3.org/2000/svg" xmlns:xlink="http://www.w3.org/1999/xlink" version="1.1" x="0" y="0" viewBox="14 14 72 72" enable-background="new 0 0 100 100" xml:space="preserve" height="163.4140329990986" width="163.4140329990986" class="icon-icon-0" data-fill-palette-color="accent" id="SvgjsSvg1543"></svg></g></svg></g></svg></g><defs><mask></mask></defs></svg></g></mask><linearGradient x1="0" x2="1" y1="0.548" y2="0.55" id="3d39edf6-3be4-4d65-b4f6-13a19d4ecaba"><stop stop-color="#ff6cab" offset="0"></stop><stop stop-color="#7366ff" offset="1"></stop></linearGradient><rect width="395.52" height="110.00974852233439" fill="url(#3d39edf6-3be4-4d65-b4f6-13a19d4ecaba)" mask="url(#108c0584-8e61-4e97-abfd-51ff0940631e)" data-fill-palette-color="primary"></rect><mask id="36711cb6-0a0c-4edd-a8b6-2053ea9de368"><g id="SvgjsG1561"><svg viewBox="0 0 395.52 110.00974852233439" height="110.00974852233439" width="395.52"><g><svg viewBox="0 0 590.4629980158063 164.23110316409407" height="110.00974852233439" width="395.52"><g></g><g transform="matrix(1,0,0,1,194.94299801580632,0.4085350824977354)"><svg viewBox="0 0 395.52 163.4140329990986" height="163.4140329990986" width="395.52"><g id="SvgjsG1560"><svg viewBox="0 0 395.52 163.4140329990986" height="163.4140329990986" width="395.52" id="SvgjsSvg1559"><g><svg viewBox="0 0 395.52 121.26541257934215" height="121.26541257934215" width="395.52"><g transform="matrix(1,0,0,1,0,0)"><svg width="395.52" viewBox="0.5000000000000036 -36.25 259.95 76.7" height="121.26541257934215" data-palette-color="url(#3d39edf6-3be4-4d65-b4f6-13a19d4ecaba)"><svg></svg><svg></svg><g class="wordmark-text-0" data-fill-palette-color="primary" id="SvgjsG1558"></g></svg></g></svg></g><g transform="matrix(1,0,0,1,0,134.50175389618)"><svg viewBox="0 0 232.20979199999996 28.912279102918585" height="28.912279102918585" width="232.20979199999996"><g transform="matrix(1,0,0,1,0,0)"><svg width="232.20979199999996" viewBox="0.49 -50.59 572.13 71.24000000000001" height="28.912279102918585" data-palette-color="url(#5fb23639-70c7-45be-9147-d6abf2612471)"><path d="M52.49-2.93L52.54-2.78Q52.54-2.39 52.27-2.25 52-2.1 52.15-1.56L52.15-1.56Q51.76-1.51 51.46-1.17 51.17-0.83 50.78-0.83L50.78-0.83Q50.54-0.83 50.39-1.07L50.39-1.07Q50.29-0.73 50.02-0.59 49.76-0.44 49.46-0.34 49.17-0.24 48.88-0.1 48.58 0.05 48.49 0.34L48.49 0.34 48.24 0.34Q47.66 0.34 47.34 0.83 47.02 1.32 46.58 1.32L46.58 1.32Q46.44 1.32 46.39 1.27L46.39 1.27Q46.14 1.32 46.19 1.59 46.24 1.86 46.04 1.95L46.04 1.95 45.8 1.95Q44.53 1.95 43.21 2.49 41.89 3.03 40.55 3.71 39.21 4.39 37.82 5 36.43 5.62 35.01 5.81L35.01 5.81Q34.72 6.1 34.3 6.27 33.89 6.45 33.4 6.54 32.91 6.64 32.45 6.76 31.98 6.88 31.64 7.18L31.64 7.18Q30.42 7.28 29.2 7.62 27.98 7.96 26.78 8.28 25.59 8.59 24.34 8.81 23.1 9.03 21.83 8.94L21.83 8.94Q21.44 9.23 20.97 9.4 20.51 9.57 20.12 9.86L20.12 9.86Q18.12 9.57 16.14 9.42 14.16 9.28 12.26 8.74L12.26 8.74Q12.26 8.59 12.16 8.54 12.06 8.5 11.94 8.47 11.82 8.45 11.72 8.37 11.62 8.3 11.72 8.11L11.72 8.11Q11.28 8.25 10.94 8.25L10.94 8.25Q10.45 8.25 9.99 8.01 9.52 7.76 9.01 7.47 8.5 7.18 7.96 6.91 7.42 6.64 6.79 6.64L6.79 6.64Q6.4 6.25 6.08 5.86 5.76 5.47 5.62 4.88L5.62 4.88Q5.42 4.83 5.2 4.88 4.98 4.93 4.83 4.93L4.83 4.93Q4.54 4.93 4.54 4.74L4.54 4.74Q3.52 4 3.08 3.17 2.64 2.34 2.1 1.27L2.1 1.27Q1.95 0.93 1.73 0.71 1.51 0.49 1.42 0.2L1.42 0.2Q1.22-0.29 1.17-0.83 1.12-1.37 1.1-1.88 1.07-2.39 0.95-2.91 0.83-3.42 0.49-3.86L0.49-3.86Q0.59-5.71 0.9-7.57 1.22-9.42 1.71-11.28L1.71-11.28Q1.9-12.11 2.15-12.89 2.39-13.67 2.59-14.5L2.59-14.5Q2.64-14.79 2.76-14.92 2.88-15.04 2.98-15.09L2.98-15.09 3.17-15.23Q3.27-15.33 3.32-15.53L3.32-15.53 3.71-17.19Q4.1-18.8 4.74-20.31 5.37-21.83 6.45-23.1L6.45-23.1Q6.54-24.32 7.01-25.42 7.47-26.51 8.06-27.56 8.64-28.61 9.23-29.64 9.81-30.66 10.16-31.84L10.16-31.84 10.11-31.93Q10.11-32.13 10.33-32.15 10.55-32.18 10.64-32.18L10.64-32.18Q10.69-32.96 11.01-33.52 11.33-34.08 11.69-34.57 12.06-35.06 12.38-35.62 12.7-36.18 12.74-36.96L12.74-36.96Q13.67-37.5 14.33-38.31 14.99-39.11 15.6-39.97 16.21-40.82 16.89-41.63 17.58-42.43 18.55-42.92L18.55-42.92Q18.8-43.21 18.7-43.75L18.7-43.75Q20.21-44.87 21.83-45.75 23.44-46.63 24.85-47.8L24.85-47.8 26.61-47.8Q27.25-48.29 28.03-48.29L28.03-48.29Q28.61-48.29 29.17-48.05 29.74-47.8 30.25-47.49 30.76-47.17 31.3-46.85 31.84-46.53 32.37-46.39L32.37-46.39Q32.91-45.65 33.13-44.7 33.35-43.75 33.59-42.92L33.59-42.92Q33.15-41.6 33.06-40.21 32.96-38.82 32.71-37.45L32.71-37.45Q32.37-37.06 32.13-36.6 31.88-36.13 31.62-35.67 31.35-35.21 31.05-34.79 30.76-34.38 30.27-34.13L30.27-34.13Q29.88-32.71 29.05-31.88 28.22-31.05 27.44-29.93L27.44-29.93Q26.71-29.44 25.88-29.44L25.88-29.44Q25.2-29.44 24.66-29.76 24.12-30.08 23.68-30.59 23.24-31.1 22.97-31.71 22.71-32.32 22.56-32.91L22.56-32.91Q22.9-33.94 23.66-34.67 24.41-35.4 25.2-36.13 25.98-36.87 26.56-37.7 27.15-38.53 27.15-39.7L27.15-39.7Q27.15-39.79 27.12-39.89 27.1-39.99 27.1-40.09L27.1-40.09Q27.1-40.28 27.25-40.43 27.39-40.58 27.54-40.67L27.54-40.67 27.83-40.92Q27.98-41.06 27.98-41.26L27.98-41.26Q27.98-41.46 27.78-41.65L27.78-41.65Q25.93-41.5 24.98-41.02 24.02-40.53 23.49-39.94 22.95-39.36 22.53-38.79 22.12-38.23 21.34-37.99L21.34-37.99Q21.19-37.6 20.92-37.33 20.65-37.06 20.36-36.79 20.07-36.52 19.85-36.18 19.63-35.84 19.58-35.35L19.58-35.35 18.7-35.35Q18.51-34.91 18.14-34.5 17.77-34.08 17.41-33.69 17.04-33.3 16.77-32.84 16.5-32.37 16.6-31.84L16.6-31.84Q16.06-31.64 15.8-31.2 15.53-30.76 15.04-30.47L15.04-30.47 15.04-30.18Q15.04-29.79 14.89-29.44 14.75-29.1 14.84-28.71L14.84-28.71Q14.26-28.17 13.99-27.37 13.72-26.56 13.43-25.88L13.43-25.88Q12.74-25.54 12.5-24.95 12.26-24.37 12.26-23.58L12.26-23.58Q11.52-22.85 10.94-21.88 10.35-20.9 9.89-19.87 9.42-18.85 9.03-17.77 8.64-16.7 8.2-15.77L8.2-15.77 8.2-14.36Q7.52-13.57 7.25-12.52 6.98-11.47 6.45-10.64L6.45-10.64Q6.35-10.11 6.37-9.57 6.4-9.03 6.4-8.5L6.4-8.5Q6.4-7.91 6.3-7.28 6.2-6.64 5.96-6.1L5.96-6.1Q6.15-5.37 6.25-4.37 6.35-3.37 6.59-2.37 6.84-1.37 7.28-0.56 7.71 0.24 8.54 0.54L8.54 0.54Q8.74 1.61 9.5 2.17 10.25 2.73 11.23 3.08 12.21 3.42 13.23 3.69 14.26 3.96 15.04 4.39L15.04 4.39Q15.33 4.25 15.72 4.25L15.72 4.25Q16.11 4.25 16.43 4.35 16.75 4.44 17.14 4.54L17.14 4.54Q17.82 4.44 18.82 4.44 19.82 4.44 20.85 4.37 21.88 4.3 22.75 4.1 23.63 3.91 24.17 3.37L24.17 3.37Q24.51 3.37 24.63 3.56 24.76 3.76 25.1 3.76L25.1 3.76Q25.44 3.76 26.12 3.59 26.81 3.42 27.54 3.2 28.27 2.98 28.93 2.73 29.59 2.49 29.88 2.29L29.88 2.29Q30.03 2.34 30.18 2.34L30.18 2.34 30.52 2.34Q31.2 2.34 31.79 2.1 32.37 1.86 33.06 1.95L33.06 1.95Q35.3 0.83 37.62 0.02 39.94-0.78 42.33-1.42L42.33-1.42Q42.63-1.86 43.04-2.05 43.46-2.25 43.95-2.37 44.43-2.49 44.92-2.56 45.41-2.64 45.85-2.78L45.85-2.78Q46.14-2.93 46.36-3.15 46.58-3.37 46.92-3.52L46.92-3.52Q47.27-3.66 47.68-3.71 48.1-3.76 48.51-3.83 48.93-3.91 49.29-4.05 49.66-4.2 49.9-4.54L49.9-4.54Q50.59-4.25 51.29-3.91 52-3.56 52.49-2.93L52.49-2.93ZM76.07-28.27L76.07-28.27Q75.78-27.83 75.73-27.29 75.68-26.76 75.68-26.32L75.68-26.32Q75.68-25.73 75.71-25.17 75.73-24.61 75.73-24.07L75.73-24.07 75.73-23.34Q75.63-23 75.44-22.66 75.24-22.31 75.14-21.97L75.14-21.97Q74.46-20.17 74.46-18.36L74.46-18.36 74.46-18.26Q74.22-17.68 74-17.19 73.78-16.7 73.58-16.24 73.39-15.77 73.29-15.26 73.19-14.75 73.24-14.06L73.24-14.06Q72.56-12.35 71.43-10.96 70.31-9.57 69.24-8.11L69.24-8.11Q68.21-7.71 67.36-7.08 66.5-6.45 65.72-5.66L65.72-5.66Q64.21-5.18 62.74-4.54 61.28-3.91 60.1-2.83L60.1-2.83Q59.18-2.73 58.25-2.54 57.32-2.34 56.44-1.95L56.44-1.95 55.86-1.95Q55.42-1.95 55.22-2.15L55.22-2.15Q54.59-1.81 53.9-1.68 53.22-1.56 52.54-1.56L52.54-1.56Q51.66-1.56 50.8-1.68 49.95-1.81 49.07-1.95L49.07-1.95Q48.58-2.64 47.7-3 46.82-3.37 46.14-3.71L46.14-3.71Q44.72-5.66 44.09-7.5 43.45-9.33 42.77-11.62L42.77-11.62Q42.87-12.3 43.11-12.96 43.36-13.62 43.31-14.4L43.31-14.4Q44.19-16.94 45.63-19.02 47.07-21.09 48.92-23L48.92-23Q48.92-23.29 49.05-23.49 49.17-23.68 49.07-24.07L49.07-24.07Q49.12-24.02 49.27-24.02L49.27-24.02Q49.66-24.02 49.75-24.24 49.85-24.46 49.8-24.76L49.8-24.76Q51.56-25.88 53-27.34 54.44-28.81 56.3-29.79L56.3-29.79Q56.44-30.22 56.78-30.52 57.13-30.81 57.32-31.2L57.32-31.2Q58.88-31.64 60.15-32.52 61.42-33.4 62.84-34.08L62.84-34.08Q63.62-34.52 64.33-34.69 65.04-34.86 65.87-35.06L65.87-35.06Q66.16-35.16 66.4-35.21 66.65-35.25 66.94-35.25L66.94-35.25Q67.82-35.25 68.65-34.94 69.48-34.62 70.36-34.62L70.36-34.62Q70.6-34.62 70.77-34.64 70.94-34.67 71.14-34.72L71.14-34.72Q71.97-33.69 73.24-33.15L73.24-33.15Q73.53-32.42 73.95-31.88 74.36-31.35 74.8-30.83 75.24-30.32 75.61-29.71 75.97-29.1 76.07-28.27ZM71.19-25.73L71.19-25.73Q71.19-25.98 71.14-26.17L71.14-26.17Q70.65-26.32 70.21-26.56 69.77-26.81 69.24-26.81L69.24-26.81Q68.89-26.81 68.55-26.66L68.55-26.66Q68.5-27 68.28-27.15 68.06-27.29 67.8-27.42 67.53-27.54 67.26-27.61 66.99-27.69 66.79-27.88L66.79-27.88Q66.65-28.27 66.48-28.69 66.31-29.1 65.87-29.3L65.87-29.3Q65.43-28.86 64.84-28.59 64.26-28.32 63.64-28.08 63.03-27.83 62.47-27.49 61.91-27.15 61.52-26.66L61.52-26.66 60.64-26.66Q60.35-26.12 59.81-25.85 59.27-25.59 58.88-25.1L58.88-25.1Q58.1-24.71 57.44-24.15 56.78-23.58 56.15-22.97 55.52-22.36 54.9-21.73 54.29-21.09 53.61-20.56L53.61-20.56Q52.98-19.19 52.22-18.19 51.46-17.19 50.8-16.16 50.14-15.14 49.68-13.94 49.22-12.74 49.22-10.99L49.22-10.99 49.22-10.5Q49.22-10.25 49.27-10.01L49.27-10.01Q49.9-9.33 50.31-8.54 50.73-7.76 51.71-7.42L51.71-7.42Q52.68-7.03 53.78-7.08 54.88-7.13 55.91-6.84L55.91-6.84Q58.25-7.28 60.42-8.28 62.6-9.28 64.55-10.69L64.55-10.69Q64.84-10.94 65.23-11.21 65.62-11.47 65.87-11.77L65.87-11.77Q66.11-12.01 66.28-12.3 66.45-12.6 66.65-12.84L66.65-12.84Q67.04-13.48 67.53-14.11 68.02-14.75 68.55-15.28L68.55-15.28Q68.8-16.36 69.19-17.36 69.58-18.36 69.97-19.34 70.36-20.31 70.63-21.34 70.9-22.36 70.9-23.49L70.9-23.49Q70.9-23.73 70.87-24.02 70.85-24.32 70.8-24.56L70.8-24.56Q71.19-25.1 71.19-25.73ZM109.86-7.91L109.86-7.91Q109.66-7.18 109.22-6.69 108.78-6.2 108.22-5.81 107.66-5.42 107.03-5.1 106.39-4.79 105.81-4.39L105.81-4.39 105.17-4.39Q103.12-4.39 102.02-5.4 100.92-6.4 100.34-7.89 99.75-9.38 99.48-11.08 99.21-12.79 98.82-14.21L98.82-14.21Q98.24-13.72 97.85-13.06 97.46-12.4 97.04-11.77 96.63-11.13 96.11-10.6 95.6-10.06 94.77-9.86L94.77-9.86Q94.62-9.52 94.45-9.18 94.28-8.84 94.23-8.45L94.23-8.45Q93.16-7.86 92.28-7.08 91.4-6.3 90.52-5.47 89.64-4.64 88.74-3.88 87.84-3.13 86.71-2.64L86.71-2.64Q86.66-2.69 86.52-2.69L86.52-2.69Q85.93-2.69 85.44-2.42 84.96-2.15 84.37-2.15L84.37-2.15Q83.98-2.15 83.66-2.29 83.34-2.44 83.03-2.64 82.71-2.83 82.37-2.93 82.03-3.03 81.64-2.98L81.64-2.98Q81.15-3.86 80.34-4.61 79.54-5.37 79.34-6.35L79.34-6.35Q79.24-6.79 79.22-7.25 79.19-7.71 79.1-8.2L79.1-8.2Q78.95-8.94 78.71-9.69 78.46-10.45 78.32-11.23L78.32-11.23Q78.56-12.55 78.78-14.14 79-15.72 79.32-17.31 79.63-18.9 80.2-20.34 80.76-21.78 81.64-22.8L81.64-22.8 81.59-23.14Q81.59-23.93 81.88-24.61 82.17-25.29 82.51-25.93 82.86-26.56 83.1-27.2 83.34-27.83 83.2-28.61L83.2-28.61Q83.78-28.91 84.42-29.1 85.05-29.3 85.74-29.3L85.74-29.3Q86.37-29.3 86.91-29.1L86.91-29.1Q86.81-28.71 87.25-28.61L87.25-28.61 87.25-28.47Q87.25-27.44 87.01-26.46 86.76-25.49 86.42-24.54 86.08-23.58 85.76-22.63 85.44-21.68 85.3-20.7L85.3-20.7Q85.1-20.65 85.03-20.51 84.96-20.36 84.91-20.21 84.86-20.07 84.76-19.97 84.66-19.87 84.47-19.87L84.47-19.87Q84.17-18.16 83.86-16.48 83.54-14.79 83.54-13.09L83.54-13.09Q83.54-12.06 83.74-10.99 83.93-9.91 84.47-8.94L84.47-8.94 84.66-8.98Q85.2-8.98 85.52-8.74 85.83-8.5 86.37-8.25L86.37-8.25Q86.76-8.35 87.1-8.52 87.45-8.69 87.4-9.13L87.4-9.13Q88.03-9.18 88.47-9.45 88.91-9.72 89.25-10.06L89.25-10.06 89.99-10.74Q90.38-11.08 90.91-11.23L90.91-11.23Q90.91-11.52 91.06-11.67L91.06-11.67 91.35-11.96Q91.5-12.11 91.57-12.28 91.65-12.45 91.6-12.79L91.6-12.79Q92.18-12.84 92.5-13.09 92.82-13.33 93.09-13.65 93.35-13.96 93.6-14.31 93.84-14.65 94.23-14.89L94.23-14.89Q94.58-15.63 95.19-16.85 95.8-18.07 96.41-19.38 97.02-20.7 97.48-21.9 97.94-23.1 97.94-23.73L97.94-23.73Q97.94-23.97 97.82-24.17 97.7-24.37 97.75-24.61L97.75-24.61 97.75-24.76Q98.14-25.24 98.46-25.83 98.77-26.42 99.14-26.95 99.51-27.49 99.95-27.93 100.39-28.37 101.07-28.61L101.07-28.61Q101.85-28.37 102.66-28.27 103.46-28.17 104.19-27.88L104.19-27.88Q104.24-26.66 104.44-25.05 104.63-23.44 105.12-22.31L105.12-22.31Q105.12-21.68 105.1-21.09 105.07-20.51 105.07-19.92L105.07-19.92Q105.07-18.95 105.15-17.92 105.22-16.89 105.46-16.02L105.46-16.02Q105.12-15.28 105.12-14.45L105.12-14.45Q105.12-13.33 105.46-12.33 105.81-11.33 105.95-10.21L105.95-10.21Q106.59-9.33 107.61-9.33L107.61-9.33Q107.86-9.33 108.03-9.38 108.2-9.42 108.39-9.52L108.39-9.52Q108.78-9.08 109.1-8.67 109.42-8.25 109.86-7.91ZM143.6-32.08L143.6-32.08Q143.5-31.49 143.33-31.08 143.16-30.66 143.25-29.98L143.25-29.98Q142.77-29.93 142.5-29.66 142.23-29.39 142.06-29.05 141.89-28.71 141.72-28.34 141.55-27.98 141.3-27.69L141.3-27.69Q141.69-25.93 141.74-24.12 141.79-22.31 141.98-20.56L141.98-20.56Q142.23-18.31 142.74-16.14 143.25-13.96 143.25-11.72L143.25-11.72Q143.25-11.04 143.23-10.45 143.21-9.86 143.21-9.23L143.21-9.23Q143.21-8.84 143.23-8.42 143.25-8.01 143.25-7.62L143.25-7.62Q143.25-6.2 142.89-4.79 142.52-3.37 142.33-1.95L142.33-1.95Q141.74-1.42 141.33-0.78 140.91-0.15 140.47 0.39 140.03 0.93 139.45 1.34 138.86 1.76 137.98 1.9L137.98 1.9Q137.83 2.39 137.42 2.64 137 2.88 136.71 3.32L136.71 3.32 136.61 3.32Q135.39 3.32 134.51 2.98 133.64 2.64 132.88 2.2 132.12 1.76 131.34 1.27 130.56 0.78 129.53 0.49L129.53 0.49Q128.17-0.63 127.04-1.98 125.92-3.32 124.5-4.39L124.5-4.39Q124.16-5.37 123.6-6.01 123.04-6.64 122.5-7.47L122.5-7.47Q122.26-7.81 122.14-8.11 122.01-8.4 121.82-8.79L121.82-8.79Q121.67-9.18 121.35-9.33 121.04-9.47 120.79-9.67L120.79-9.67Q120.4-11.18 119.67-12.45 118.94-13.72 117.96-14.89L117.96-14.89Q117.67-14.36 117.5-13.75 117.33-13.13 117.18-12.52 117.03-11.91 116.81-11.3 116.59-10.69 116.25-10.21L116.25-10.21 116.25-10.06Q116.25-9.81 116.45-9.77 116.64-9.72 116.64-9.47L116.64-9.47Q116.64-9.42 116.62-9.38 116.59-9.33 116.59-9.28L116.59-9.28Q116.35-9.08 116.23-8.79 116.11-8.5 115.72-8.45L115.72-8.45Q115.76-8.2 115.76-7.96L115.76-7.96 115.76-7.52Q115.76-6.1 115.45-4.69 115.13-3.27 115.13-1.81L115.13-1.81 115.13-1.17Q115.13-0.83 115.18-0.54L115.18-0.54Q115.28-0.24 115.47 0.05 115.67 0.34 115.67 0.59L115.67 0.59Q115.67 0.93 115.37 1.22L115.37 1.22Q115.72 1.46 116.15 1.76 116.59 2.05 116.96 2.42 117.33 2.78 117.57 3.2 117.81 3.61 117.81 4.1L117.81 4.1Q117.81 4.93 117.28 5.27 116.74 5.62 115.98 5.81 115.23 6.01 114.42 6.18 113.62 6.35 113.08 6.79L113.08 6.79 112.93 6.79Q112.35 6.79 112.05 6.45 111.76 6.1 111.17 6.1L111.17 6.1Q110.25 4.59 109.9 2.71 109.56 0.83 109.56-0.88L109.56-0.88Q109.56-2.98 109.93-5.08 110.3-7.18 110.81-9.23 111.32-11.28 111.93-13.31 112.54-15.33 113.08-17.38L113.08-17.38 113.13-17.53Q113.13-17.77 113.01-17.87 112.88-17.97 112.88-18.16L112.88-18.16Q112.88-18.26 112.93-18.26L112.93-18.26Q113.08-18.75 113.25-19.19 113.42-19.63 113.52-20.17L113.52-20.17Q113.81-21.53 113.93-22.97 114.06-24.41 114.08-25.83 114.1-27.25 114.18-28.69 114.25-30.13 114.49-31.54L114.49-31.54Q114.89-31.93 115.23-32.37 115.57-32.81 116.11-33.15L116.11-33.15Q117.08-33.11 118.06-32.86 119.04-32.62 119.91-32.08L119.91-32.08Q120.5-29.98 120.72-27.88 120.94-25.78 121.48-23.68L121.48-23.68 121.48-23.54Q121.48-23.29 121.75-23.32 122.01-23.34 122.16-23.14L122.16-23.14Q122.06-23 122.04-22.8 122.01-22.61 122.01-22.41L122.01-22.41 122.01-21.58Q122.11-21.19 122.26-20.75 122.4-20.31 122.89-20.21L122.89-20.21Q123.14-18.65 123.63-17.33 124.11-16.02 124.75-14.79 125.38-13.57 126.12-12.38 126.85-11.18 127.63-9.86L127.63-9.86Q128.85-8.94 129.73-7.74 130.61-6.54 131.51-5.44 132.41-4.35 133.56-3.52 134.71-2.69 136.56-2.49L136.56-2.49Q136.81-2.69 136.91-3.03L136.91-3.03 137.15-3.71Q137.3-4.05 137.47-4.32 137.64-4.59 137.98-4.74L137.98-4.74Q138.08-6.1 138.2-7.52 138.32-8.94 138.81-10.21L138.81-10.21Q138.57-10.64 138.57-11.28L138.57-11.28Q138.57-11.77 138.64-12.21 138.71-12.65 138.71-13.09L138.71-13.09Q138.71-14.01 138.32-14.6L138.32-14.6Q138.32-14.94 138.37-15.31 138.42-15.67 138.66-16.02L138.66-16.02Q138.27-16.99 138.05-18.07 137.83-19.14 137.83-20.26L137.83-20.26Q137.83-20.9 137.98-21.58L137.98-21.58Q137.69-22.31 137.59-23.29L137.59-23.29 137.39-25.29Q137.3-26.32 137.1-27.2 136.91-28.08 136.37-28.61L136.37-28.61Q136.66-29.05 136.66-29.64L136.66-29.64Q136.66-30.62 136.37-31.49 136.08-32.37 136.08-33.35L136.08-33.35Q136.08-34.03 136.37-34.72L136.37-34.72Q137.44-34.67 138.49-34.5 139.54-34.33 140.57-34.33L140.57-34.33Q140.86-33.94 141.25-33.69 141.64-33.45 142.08-33.23 142.52-33.01 142.94-32.76 143.35-32.52 143.6-32.08ZM190.37-31.4L190.52-31.4Q190.32-30.76 189.88-30.22L189.88-30.22 189.05-29.2Q188.66-28.71 188.39-28.15 188.12-27.59 188.22-26.86L188.22-26.86Q188.12-26.86 187.98-26.88 187.83-26.9 187.73-26.9L187.73-26.9Q186.95-26.9 186.54-26.54 186.12-26.17 185.44-25.93L185.44-25.93Q185.34-26.22 185.2-26.49 185.05-26.76 184.76-26.86L184.76-26.86Q183.58-26.61 182.41-26.49 181.24-26.37 180.07-26.17L180.07-26.17Q179.53-26.07 178.99-25.9 178.46-25.73 177.87-25.59L177.87-25.59Q177.58-25.49 177.24-25.51 176.89-25.54 176.55-25.49L176.55-25.49Q175.38-25.44 174.01-25.32 172.65-25.2 171.57-24.56L171.57-24.56Q171.08-24.66 170.55-24.71 170.01-24.76 169.47-24.76L169.47-24.76Q168.3-24.76 166.91-24.54 165.52-24.32 164.44-23.68L164.44-23.68Q164.2-23.78 163.93-23.83 163.66-23.88 163.32-23.88L163.32-23.88Q163.22-23.88 163.17-23.85 163.12-23.83 163.03-23.83L163.03-23.83Q162.98-23.39 163.15-22.97 163.32-22.56 163.76-22.31L163.76-22.31Q163.56-21.78 163.56-21.14L163.56-21.14Q163.56-20.31 163.69-19.48 163.81-18.65 163.81-17.82L163.81-17.82Q163.81-16.89 163.56-16.36L163.56-16.36Q164.05-14.89 164.05-13.23L164.05-13.23Q164.05-12.65 163.98-12.08 163.91-11.52 163.91-10.89L163.91-10.89Q163.91-10.35 164.3-10.03 164.69-9.72 164.69-9.18L164.69-9.18Q164.69-8.98 164.59-8.79L164.59-8.79Q165.27-8.94 165.91-9.2 166.54-9.47 167.23-9.47L167.23-9.47Q167.62-9.47 167.98-9.33 168.35-9.18 168.64-8.94L168.64-8.94Q168.59-8.69 168.57-8.4 168.54-8.11 168.54-7.81L168.54-7.81Q168.54-7.28 168.57-6.81 168.59-6.35 168.64-5.81L168.64-5.81Q168.25-5.13 167.74-4.59 167.23-4.05 167.03-3.22L167.03-3.22Q166.3-3.22 165.74-2.91 165.18-2.59 164.69-2.22 164.2-1.86 163.71-1.54 163.22-1.22 162.64-1.22L162.64-1.22Q161.9-1.22 161.61-1.44 161.32-1.66 161.17-1.9 161.03-2.15 160.9-2.34 160.78-2.54 160.39-2.49L160.39-2.49Q160.29-3.13 160-3.69 159.71-4.25 159.39-4.79 159.07-5.32 158.75-5.88 158.44-6.45 158.29-7.03L158.29-7.03Q158-8.3 158.05-9.67 158.1-11.04 157.61-12.3L157.61-12.3Q157.7-12.99 157.75-13.7 157.8-14.4 157.8-15.09L157.8-15.09Q157.8-16.46 157.73-17.8 157.66-19.14 157.61-20.56L157.61-20.56Q157.27-21 157.19-21.56 157.12-22.12 157.07-22.66L157.07-22.66Q156.92-22.8 156.75-22.95 156.58-23.1 156.53-23.34L156.53-23.34Q156.14-23.44 155.95-23.44L155.95-23.44Q155.26-23.44 154.8-23.12 154.34-22.8 153.95-22.8L153.95-22.8Q153.55-22.8 153.21-22.9 152.87-23 152.53-23L152.53-23Q152.24-23 152.21-22.88 152.19-22.75 151.99-22.66L151.99-22.66Q151.85-22.56 151.31-22.46 150.77-22.36 150.11-22.29 149.45-22.22 148.84-22.17 148.23-22.12 148.04-22.12L148.04-22.12Q147.26-22.12 146.84-22.44 146.43-22.75 145.84-23.14L145.84-23.14Q145.94-23.44 145.94-23.54L145.94-23.54Q145.94-24.02 145.64-24.34 145.35-24.66 145.35-24.9L145.35-24.9Q145.35-25.44 145.77-25.73 146.18-26.03 146.23-26.66L146.23-26.66Q147.35-27.15 148.53-27.39 149.7-27.64 150.92-27.78 152.14-27.93 153.33-28.13 154.53-28.32 155.7-28.76L155.7-28.76Q156.04-28.71 156.36-28.69 156.68-28.66 157.02-28.66L157.02-28.66Q158.49-28.66 159.93-28.98 161.37-29.3 162.88-29.3L162.88-29.3Q163.27-29.3 163.66-29.25 164.05-29.2 164.44-29.1L164.44-29.1Q166.4-29.39 168.32-29.74 170.25-30.08 172.3-30.32L172.3-30.32Q173.28-30.42 174.23-30.49 175.19-30.57 176.16-30.71L176.16-30.71Q176.5-30.76 176.67-30.88 176.85-31.01 176.85-31.4L176.85-31.4Q177.28-31.2 177.82-31.2L177.82-31.2Q178.65-31.2 179.43-31.49 180.21-31.79 181.04-31.79L181.04-31.79Q181.24-31.79 181.39-31.76 181.53-31.74 181.68-31.74L181.68-31.74Q182.02-31.74 182.05-32.06 182.07-32.37 182.51-32.47L182.51-32.47Q182.85-32.57 183.49-32.62 184.12-32.67 184.83-32.74 185.54-32.81 186.15-32.93 186.76-33.06 187.05-33.3L187.05-33.3 187.39-33.84Q188.27-33.79 188.69-33.08 189.1-32.37 189.15-31.54L189.15-31.54Q189.35-31.35 189.71-31.37 190.08-31.4 190.37-31.4L190.37-31.4ZM214.59-31.05L214.59-31.05 214.59-30.86Q214.25-30.76 214.25-30.37L214.25-30.37Q213.71-30.13 213.12-30 212.54-29.88 212-29.64L212-29.64Q211.46-29.69 210.9-29.71 210.34-29.74 209.8-29.74L209.8-29.74Q208.34-29.74 206.87-29.64 205.41-29.54 203.94-29.64L203.94-29.64Q203.26-29.25 202.45-29.03 201.65-28.81 200.92-28.81L200.92-28.81Q200.33-28.81 199.89-28.96L199.89-28.96Q198.72-28.37 197.33-27.98 195.93-27.59 194.52-27.22 193.1-26.86 191.81-26.39 190.51-25.93 189.54-25.1L189.54-25.1Q189.44-24.41 189.39-23.75 189.34-23.1 189.34-22.46L189.34-22.46Q189.34-21.78 189.42-21.19 189.49-20.61 189.73-20.02L189.73-20.02Q189.98-19.92 190.3-19.87 190.61-19.82 190.86-19.82L190.86-19.82Q191.1-19.82 191.34-19.9 191.59-19.97 191.69-20.21L191.69-20.21Q192.42-20.31 193.15-20.29 193.88-20.26 194.62-20.26L194.62-20.26Q195.35-20.26 196.06-20.31 196.76-20.36 197.45-20.56L197.45-20.56Q198.23-20.75 198.99-20.8 199.74-20.85 200.48-20.9 201.21-20.95 201.99-21.07 202.77-21.19 203.6-21.58L203.6-21.58Q204.24-21.34 204.89-21.34 205.55-21.34 206.19-21.24L206.19-21.24Q206.53-21 206.75-20.7 206.97-20.41 206.97-20.02L206.97-20.02Q206.97-19.34 206.48-18.65 205.99-17.97 205.7-17.38L205.7-17.38 205.16-17.38Q203.99-17.38 202.89-17.07 201.79-16.75 200.7-16.33 199.6-15.92 198.5-15.6 197.4-15.28 196.23-15.28L196.23-15.28Q196.03-15.28 196.01-15.06 195.98-14.84 195.89-14.75L195.89-14.75Q195.64-14.79 195.15-14.79L195.15-14.79Q194.03-14.79 193.01-14.55 191.98-14.31 190.91-14.31L190.91-14.31Q190.61-14.31 190.32-14.33 190.03-14.36 189.73-14.4L189.73-14.4Q189.49-14.01 189.1-13.89 188.71-13.77 188.37-13.48L188.37-13.48Q188.22-13.04 188.2-12.4 188.17-11.77 188.15-11.11 188.12-10.45 188.02-9.86 187.93-9.28 187.63-8.94L187.63-8.94Q187.68-8.69 188.02-8.76 188.37-8.84 188.37-8.45L188.37-8.45Q188.37-8.01 188.27-7.52 188.17-7.03 188.17-6.54L188.17-6.54Q188.17-5.62 188.39-4.52 188.61-3.42 189.07-2.49 189.54-1.56 190.32-0.95 191.1-0.34 192.27-0.34L192.27-0.34Q193.05-0.34 193.74-0.63 194.42-0.93 194.86-1.61L194.86-1.61 195.1-1.66Q195.3-1.66 195.47-1.61 195.64-1.56 195.84-1.56L195.84-1.56Q196.13-1.56 196.59-1.93 197.06-2.29 197.62-2.78 198.18-3.27 198.77-3.74 199.35-4.2 199.89-4.39L199.89-4.39Q200.23-5.08 200.55-5.76 200.87-6.45 201.5-6.84L201.5-6.84 201.5-8.25Q201.99-8.79 202.55-9.23 203.11-9.67 203.41-10.35L203.41-10.35Q203.65-10.25 203.87-10.21 204.09-10.16 204.33-10.16L204.33-10.16Q204.58-10.16 204.85-10.21 205.11-10.25 205.36-10.35L205.36-10.35Q205.75-9.81 205.97-9.16 206.19-8.5 206.53-7.91L206.53-7.91Q206.09-7.03 205.51-5.81 204.92-4.59 204.24-3.37 203.55-2.15 202.8-1.05 202.04 0.05 201.31 0.63L201.31 0.63Q201.16 0.78 200.67 0.98L200.67 0.98Q200.13 1.37 199.69 1.73 199.26 2.1 198.86 2.59L198.86 2.59Q197.45 3.03 196.15 3.76 194.86 4.49 193.59 5.18L193.59 5.18Q193.01 5.03 192.32 5.03L192.32 5.03Q191.74 5.03 191.15 5.1 190.56 5.18 189.88 5.18L189.88 5.18Q189.68 4.93 189.32 4.86 188.95 4.79 189.05 4.35L189.05 4.35Q187.39 4.25 186.36 3.44 185.34 2.64 184.63 1.46 183.92 0.29 183.48-1.07 183.04-2.44 182.56-3.71L182.56-3.71 182.56-3.86Q182.56-4.1 182.75-4.15 182.95-4.2 182.95-4.44L182.95-4.44Q182.95-4.54 182.9-4.59L182.9-4.59Q182.75-5.13 182.65-5.52 182.56-5.91 182.56-6.45L182.56-6.45Q182.56-7.23 182.65-7.98 182.75-8.74 182.75-9.52L182.75-9.52Q182.75-10.3 182.56-10.89L182.56-10.89Q182.75-11.13 182.87-11.55 183-11.96 183.04-12.4 183.09-12.84 183.12-13.28 183.14-13.72 183.24-14.06L183.24-14.06Q183.04-14.6 182.9-15.01 182.75-15.43 182.75-16.02L182.75-16.02 182.75-16.36Q183.24-17.19 183.58-18.07 183.92-18.95 184.31-19.87L184.31-19.87 184.31-20.02Q184.31-21.44 184.22-22.85 184.12-24.27 184.12-25.68L184.12-25.68 184.12-26.61Q184.12-27.1 184.17-27.54L184.17-27.54Q184.56-27.73 184.75-28.08 184.95-28.42 185.34-28.61L185.34-28.61 186.95-28.61 187.24-29.1Q187.39-29.35 187.44-29.64L187.44-29.64Q187.98-29.79 188.49-30.05 189-30.32 189.44-30.62L189.44-30.62Q190.12-31.01 190.69-31.32 191.25-31.64 191.81-31.86 192.37-32.08 193.01-32.23 193.64-32.37 194.47-32.47L194.47-32.47Q194.86-32.47 194.98-32.62 195.1-32.76 195.35-32.96L195.35-32.96Q195.93-32.86 196.52-32.79 197.11-32.71 197.69-32.71L197.69-32.71Q198.86-32.71 199.89-33.15L199.89-33.15Q201.35-33.15 202.8-33.2 204.24-33.25 205.7-33.25L205.7-33.25Q206.97-33.25 208.24-33.15 209.51-33.06 210.73-32.81L210.73-32.81Q211.17-32.96 211.71-32.96L211.71-32.96Q212.29-32.96 212.9-32.84 213.51-32.71 214.1-32.81L214.1-32.81Q214.15-32.28 214.37-31.91 214.59-31.54 214.59-31.05ZM274.69-8.5L274.69-8.5Q274.59-7.76 274.18-7.37 273.76-6.98 273.23-6.64L273.23-6.64Q272.98-6.69 272.76-6.71 272.54-6.74 272.3-6.74L272.3-6.74Q270.79-6.79 269.44-6.35 268.1-5.91 266.68-5.71L266.68-5.71Q266.2-5.62 265.78-5.64 265.37-5.66 264.93-5.57L264.93-5.57Q263.36-5.32 261.61-5.18 259.85-5.03 258.09-4.81 256.33-4.59 254.65-4.27 252.96-3.96 251.5-3.37L251.5-3.37Q251.35-3.47 251.21-3.59 251.06-3.71 250.86-3.71L250.86-3.71Q250.38-3.71 249.94-3.56 249.5-3.42 249.06-3.47L249.06-3.47Q248.57-3.17 248.01-3.05 247.45-2.93 246.88-2.86 246.32-2.78 245.79-2.64 245.25-2.49 244.76-2.1L244.76-2.1Q244.37-2.29 243.81-2.32 243.25-2.34 243.05-2.69L243.05-2.69Q241.93-2.15 240.68-2 239.44-1.86 238.17-1.9L238.17-1.9Q237.34-1.95 236.26-2.15 235.19-2.34 234.12-2.71 233.04-3.08 232.11-3.59 231.19-4.1 230.7-4.83L230.7-4.83Q230.36-5.32 230.21-5.91 230.06-6.49 229.53-6.79L229.53-6.79Q229.67-7.91 229.87-8.98 230.06-10.06 230.26-11.18L230.26-11.18Q231.24-12.01 232.11-12.94 232.99-13.87 233.77-14.89L233.77-14.89Q234.7-15.33 235.51-15.97 236.31-16.6 237.12-17.26 237.92-17.92 238.73-18.55 239.54-19.19 240.46-19.68L240.46-19.68Q240.61-20.02 240.88-20.24 241.15-20.46 241.44-20.68 241.73-20.9 241.98-21.17 242.22-21.44 242.32-21.83L242.32-21.83Q244.03-22.85 245.3-24.41 246.57-25.98 246.96-27.93L246.96-27.93Q246.13-28.61 245.08-28.83 244.03-29.05 242.9-29.15L242.9-29.15Q241.93-29.2 240.88-29.15 239.83-29.1 238.75-29.2L238.75-29.2Q237.68-28.86 236.53-28.76 235.39-28.66 234.26-28.59 233.14-28.52 232.04-28.3 230.94-28.08 229.92-27.49L229.92-27.49Q229.72-27.49 229.55-27.54 229.38-27.59 229.18-27.59L229.18-27.59Q227.62-27.64 226.25-26.98 224.89-26.32 223.57-25.68L223.57-25.68Q223.47-25.49 223.47-25.39L223.47-25.39Q223.47-25.1 223.59-24.83 223.72-24.56 223.72-24.27L223.72-24.27Q223.67-24.22 223.67-24.17 223.67-24.12 223.62-24.07L223.62-24.07Q223.57-23.83 223.5-23.63 223.42-23.44 223.32-23.19L223.32-23.19Q222.79-21.63 222.74-20.12L222.74-20.12Q222.69-18.85 222.74-17.63 222.79-16.41 222.74-15.14L222.74-15.14Q222.64-13.57 222.25-12.21L222.25-12.21Q222.49-11.04 222.69-9.74 222.89-8.45 223.18-7.18 223.47-5.91 223.89-4.71 224.3-3.52 224.99-2.44L224.99-2.44Q224.94-2.34 225.03-2.29 225.13-2.25 225.23-2.25L225.23-2.25 225.62-2.25Q225.86-2.25 225.82-2.05L225.82-2.05Q225.91-1.9 225.96-1.78 226.01-1.66 226.16-1.56L226.16-1.56Q226.25-1.42 226.16-1.17L226.16-1.17Q226.11-0.2 225.67 0.63 225.23 1.46 225.13 2.44L225.13 2.44Q224.55 2.59 224.06 2.59L224.06 2.59Q223.23 2.54 222.59 2.12 221.96 1.71 221.42 1.12 220.88 0.54 220.4-0.07 219.91-0.68 219.32-1.12L219.32-1.12Q218.98-2.49 218.66-4.15 218.34-5.81 217.61-6.98L217.61-6.98Q217.81-7.42 217.81-8.06L217.81-8.06Q217.86-9.03 217.64-9.99 217.42-10.94 217.51-11.91L217.51-11.91Q217.51-12.45 217.64-12.99 217.76-13.53 217.81-14.06L217.81-14.06Q217.86-14.89 217.64-15.67 217.42-16.46 217.47-17.29L217.47-17.29Q217.51-17.68 217.64-18.04 217.76-18.41 218-18.7L218-18.7Q217.76-19.29 217.86-19.82L217.86-19.82Q217.9-20.65 218.05-21.39 218.2-22.12 218.25-22.85L218.25-22.85Q218.25-23.24 218.2-23.61 218.15-23.97 218.05-24.32L218.05-24.32 217.61-24.46Q217.32-24.46 217.05-24.32 216.78-24.17 216.59-23.97 216.39-23.78 216.24-23.66 216.1-23.54 215.95-23.54L215.95-23.54Q215.85-23.54 215.73-23.56 215.61-23.58 215.51-23.58L215.51-23.58Q215.41-23.58 215.15-23.39 214.88-23.19 214.51-22.97 214.15-22.75 213.8-22.53 213.46-22.31 213.27-22.27L213.27-22.27Q212.73-22.36 212.41-22.63 212.09-22.9 211.83-23.17 211.56-23.44 211.26-23.66 210.97-23.88 210.53-23.83L210.53-23.83Q210.39-24.12 210.36-24.46 210.34-24.8 210.39-25.15L210.39-25.15 210.39-25.93Q210.73-26.56 211.29-26.98 211.85-27.39 212.49-27.69L212.49-27.69 213.75-28.27Q214.39-28.56 214.93-29L214.93-29 215.37-29Q216.24-28.96 216.9-29.35 217.56-29.74 218.15-30.25 218.74-30.76 219.35-31.3 219.96-31.84 220.69-32.13L220.69-32.13Q221.23-31.88 221.81-31.71 222.4-31.54 223.03-31.49L223.03-31.49Q223.67-31.49 224.35-31.69 225.03-31.88 225.42-32.42L225.42-32.42Q225.67-32.32 225.84-32.3 226.01-32.28 226.25-32.28L226.25-32.28Q226.99-32.23 227.72-32.5 228.45-32.76 229.14-33.15L229.14-33.15Q230.11-33.11 231.06-33.28 232.02-33.45 232.97-33.64 233.92-33.84 234.87-34.01 235.82-34.18 236.8-34.13L236.8-34.13Q238.41-34.08 239.98-34.42 241.54-34.77 243.15-34.67L243.15-34.67Q244.27-34.62 245.37-34.5 246.47-34.38 247.59-34.42L247.59-34.42Q248.23-34.13 248.74-33.91 249.25-33.69 250.03-33.79L250.03-33.79Q251.6-32.47 252.87-30.71L252.87-30.71 252.87-29.88Q252.82-28.76 252.48-27.69 252.13-26.61 251.67-25.56 251.21-24.51 250.67-23.51 250.13-22.51 249.64-21.53L249.64-21.53Q246.47-18.65 243.3-15.82 240.12-12.99 236.75-10.35L236.75-10.35Q236.65-9.86 236.48-9.47 236.31-9.08 236.26-8.64L236.26-8.64Q236.26-8.4 236.31-8.25L236.31-8.25Q236.65-8.15 236.92-7.89 237.19-7.62 237.09-7.18L237.09-7.18 237.53-7.18Q237.78-7.18 237.78-6.98L237.78-6.98 238.56-6.93Q240.41-6.84 242.27-7.03 244.13-7.23 246.01-7.47 247.89-7.71 249.74-7.93 251.6-8.15 253.45-8.2L253.45-8.2Q253.89-8.35 254.38-8.45 254.87-8.54 255.26-8.84L255.26-8.84 255.4-8.84Q255.75-8.84 255.92-8.64 256.09-8.45 256.43-8.4L256.43-8.4Q256.67-8.4 256.94-8.5 257.21-8.59 257.5-8.64L257.5-8.64Q258.19-8.84 258.94-8.89 259.7-8.94 260.43-9.03L260.43-9.03Q263.27-9.28 266.05-9.35 268.83-9.42 271.62-10.06L271.62-10.06Q271.86-9.72 272.3-9.59 272.74-9.47 273.23-9.35 273.72-9.23 274.13-9.08 274.55-8.94 274.69-8.5ZM295-14.5L295-14.5Q294.51-14.45 294.15-14.26 293.78-14.06 293.39-13.96L293.39-13.96Q293.44-13.92 293.44-13.82L293.44-13.82Q293.44-13.53 293.29-13.4 293.15-13.28 293.24-12.89L293.24-12.89Q292.51-12.5 291.73-12.3 290.95-12.11 290.14-11.96 289.34-11.82 288.56-11.62 287.78-11.43 287.09-10.99L287.09-10.99 287.09-11.52Q286.51-11.18 285.97-11.18L285.97-11.18Q285.48-11.18 285.04-11.35 284.6-11.52 284.06-11.52L284.06-11.52Q283.82-11.52 283.43-11.33L283.43-11.33Q282.94-11.38 282.67-11.6 282.4-11.82 282.01-12.06L282.01-12.06Q281.77-11.57 281.31-11.45 280.84-11.33 280.45-11.33L280.45-11.33Q279.91-11.33 279.45-11.38 278.99-11.43 278.55-11.52L278.55-11.52Q277.77-11.28 277.08-11.25 276.4-11.23 275.62-11.23L275.62-11.23Q274.93-11.23 274.32-11.16 273.71-11.08 273.08-10.79L273.08-10.79Q272.88-11.28 272.25-11.28L272.25-11.28Q271.96-11.28 271.64-11.25 271.32-11.23 271.03-11.23L271.03-11.23Q270.54-11.23 270.3-11.52L270.3-11.52Q270.1-11.43 270.12-11.18 270.15-10.94 270.1-10.79L270.1-10.79Q269.37-11.08 268.54-11.08L268.54-11.08Q267.85-11.08 267.22-10.94 266.58-10.79 265.95-10.79L265.95-10.79Q265.61-10.79 265.27-10.89 264.92-10.99 264.68-10.99L264.68-10.99Q264.39-10.99 264.24-10.86 264.09-10.74 263.97-10.62 263.85-10.5 263.68-10.38 263.51-10.25 263.21-10.25L263.21-10.25Q262.68-10.25 262.48-10.57 262.29-10.89 261.9-10.99L261.9-10.99Q261.9-11.47 261.75-11.87 261.6-12.26 261.41-12.67 261.21-13.09 261.07-13.48 260.92-13.87 260.92-14.36L260.92-14.36Q260.92-14.5 260.94-14.67 260.97-14.84 260.97-14.99L260.97-14.99Q261.65-15.97 262.95-16.38 264.24-16.8 265.31-16.8L265.31-16.8Q265.85-16.8 266.12-16.6 266.39-16.41 266.78-16.06L266.78-16.06Q270.2-16.46 273.64-16.6 277.08-16.75 280.5-16.94L280.5-16.94Q281.62-17.04 282.75-17.11 283.87-17.19 284.99-17.29L284.99-17.29Q285.14-17.29 285.19-17.41 285.24-17.53 285.26-17.68 285.29-17.82 285.36-17.92 285.43-18.02 285.63-18.02L285.63-18.02Q286.16-18.02 286.36-17.7 286.55-17.38 286.95-17.29L286.95-17.29Q287.29-17.48 287.75-17.58 288.21-17.68 288.65-17.75 289.09-17.82 289.51-17.94 289.92-18.07 290.22-18.36L290.22-18.36Q290.61-18.41 290.66-18.19 290.71-17.97 290.95-17.87L290.95-17.87Q291.19-17.92 291.49-17.99 291.78-18.07 292.02-18.07L292.02-18.07 292.37-18.07Q292.56-18.07 292.71-18.02L292.71-18.02Q293.15-17.04 293.85-16.26 294.56-15.48 295-14.5ZM339.09-1.81L339.09-1.81Q339.09-1.32 339.04-1.07L339.04-1.07Q338.8-0.98 338.65-0.81 338.51-0.63 338.16-0.68L338.16-0.68Q338.07 0.05 337.68 0.54 337.28 1.03 336.87 1.44 336.45 1.86 336.06 2.32 335.67 2.78 335.58 3.52L335.58 3.52Q334.84 3.91 334.14 4.57 333.43 5.22 332.89 5.47L332.89 5.47Q332.5 5.66 332.06 5.79 331.62 5.91 331.18 6.1L331.18 6.1Q329.77 6.74 328.28 7.42 326.79 8.11 325.18 8.11L325.18 8.11 324.83 8.11Q324.64 8.3 324.35 8.37 324.05 8.45 323.76 8.5 323.47 8.54 323.17 8.64 322.88 8.74 322.73 8.94L322.73 8.94Q322.2 8.74 321.56 8.74L321.56 8.74 321.22 8.74Q320.39 8.94 319.66 9.03 318.93 9.13 318.1 9.13L318.1 9.13Q316.63 9.13 315.17 8.94 313.7 8.74 312.24 8.59L312.24 8.59Q311.31 7.86 310.72 6.76 310.14 5.66 310.14 4.44L310.14 4.44Q310.14 3.52 310.53 2.71 310.92 1.9 311.55 1.27L311.55 1.27 311.7 1.27Q312.14 1.27 312.6 1.07 313.07 0.88 313.51 0.88L313.51 0.88Q313.99 0.88 314.31 1.27 314.63 1.66 314.8 2.2 314.97 2.73 315.02 3.3 315.07 3.86 315.07 4.2L315.07 4.2Q315.61 4.44 316.22 4.49 316.83 4.54 317.46 4.54L317.46 4.54Q318.1 4.54 318.88 4.47 319.66 4.39 320.46 4.22 321.27 4.05 322.03 3.81 322.78 3.56 323.32 3.17L323.32 3.17Q326.01 2.93 328.06 1.95 330.11 0.98 332.4-0.34L332.4-0.34Q332.5-0.88 332.82-1.2 333.13-1.51 333.13-2.15L333.13-2.15Q333.13-2.25 333.11-2.37 333.09-2.49 333.09-2.59L333.09-2.59Q332.11-3.81 331.06-4.74 330.01-5.66 328.35-5.96L328.35-5.96Q328.15-6.4 327.71-6.62 327.27-6.84 326.79-7.03 326.3-7.23 325.86-7.45 325.42-7.67 325.22-8.2L325.22-8.2Q323.91-8.45 322.51-8.81 321.12-9.18 320.15-10.16L320.15-10.16Q319.36-10.21 318.66-10.47 317.95-10.74 317.27-11.01 316.58-11.28 315.85-11.5 315.12-11.72 314.34-11.72L314.34-11.72Q314.14-12.06 313.8-12.26 313.46-12.45 313.04-12.6 312.63-12.74 312.26-12.92 311.89-13.09 311.7-13.43L311.7-13.43Q311.5-13.38 311.41-13.23 311.31-13.09 311.06-13.09L311.06-13.09 310.87-13.09Q310.77-13.38 310.48-13.5 310.19-13.62 310.14-14.01L310.14-14.01Q309.26-14.06 308.55-14.36 307.84-14.65 307.23-15.01 306.62-15.38 305.99-15.72 305.35-16.06 304.57-16.26L304.57-16.26Q304.08-16.65 303.67-17.11 303.25-17.58 302.62-17.58L302.62-17.58Q302.47-17.58 302.08-17.48L302.08-17.48Q301.98-18.36 301.35-18.73 300.71-19.09 299.98-19.38L299.98-19.38Q299.49-20.65 298.66-21.63 297.83-22.61 296.86-23.44L296.86-23.44Q296.95-23.73 296.95-23.88L296.95-23.88Q296.95-24.37 296.71-24.73 296.46-25.1 296.17-25.34L296.17-25.34Q295.49-27.54 295.49-29.64L295.49-29.64Q295.49-32.57 296.78-35.08 298.08-37.6 300.86-38.87L300.86-38.87Q300.91-39.26 301.13-39.55 301.35-39.84 301.4-40.23L301.4-40.23Q301.84-40.23 302.08-40.43 302.32-40.63 302.54-40.84 302.76-41.06 303.01-41.26 303.25-41.46 303.64-41.5L303.64-41.5Q305.5-43.12 307.6-44.12 309.7-45.12 311.89-46.19L311.89-46.19Q312.33-46.39 312.63-46.92L312.63-46.92 312.92-46.92Q313.41-46.92 313.68-47.14 313.94-47.36 314.48-47.27L314.48-47.27Q314.68-47.56 314.99-47.66 315.31-47.75 315.63-47.83 315.95-47.9 316.24-48.05 316.53-48.19 316.63-48.49L316.63-48.49 316.97-48.49Q317.8-48.49 318.58-48.75 319.36-49.02 320.15-49.37L320.15-49.37 320.49-49.37Q321.46-49.37 322.32-49.73 323.17-50.1 324.15-50.24L324.15-50.24Q324.54-50.34 324.93-50.29 325.32-50.24 325.71-50.24L325.71-50.24Q325.96-50.24 326.3-50.29 326.64-50.34 326.79-50.59L326.79-50.59 326.88-50.59Q327.18-50.59 327.23-50.39 327.27-50.2 327.52-50.2L327.52-50.2Q327.86-50.2 328.2-50.29 328.54-50.39 328.89-50.39L328.89-50.39Q330.35-50.39 331.79-50.1 333.23-49.8 334.65-49.56L334.65-49.56Q334.75-48.97 335.16-48.73 335.58-48.49 336.06-48.29L336.06-48.29 336.06-48.1Q336.06-47.71 336.26-47.46L336.26-47.46Q336.06-46.78 335.58-46.44 335.09-46.09 334.5-45.85L334.5-45.85Q334.75-45.65 334.79-45.31 334.84-44.97 334.84-44.68L334.84-44.68 334.84-44.09 334.6-44.14Q333.82-44.14 333.82-43.41L333.82-43.41Q333.18-43.8 332.43-43.9 331.67-43.99 330.94-43.99L330.94-43.99Q329.96-43.99 328.89-43.92 327.81-43.85 326.79-43.95L326.79-43.95Q326.4-43.46 325.81-43.24 325.22-43.02 324.64-43.02L324.64-43.02Q324-43.02 323.42-43.29 322.83-43.55 322.59-44.09L322.59-44.09Q322.34-44.19 322.15-44.19L322.15-44.19 321.71-44.19Q320.93-44.19 320.17-44.02 319.41-43.85 318.63-43.63 317.85-43.41 317.09-43.19 316.34-42.97 315.56-42.92L315.56-42.92Q315.26-42.53 314.77-42.38 314.29-42.24 313.99-41.85L313.99-41.85Q312.97-41.65 312.14-41.19 311.31-40.72 310.53-40.19L310.53-40.19 309.01-39.16Q308.28-38.67 307.35-38.33L307.35-38.33Q306.67-37.6 306.08-37.16 305.5-36.72 304.57-36.38L304.57-36.38Q303.98-36.18 303.91-35.79 303.84-35.4 303.5-35.01L303.5-35.01Q303.2-34.67 302.79-34.5 302.37-34.33 302.08-33.94L302.08-33.94Q301.84-33.59 301.71-33.13 301.59-32.67 301.44-32.23 301.3-31.79 301.1-31.37 300.91-30.96 300.52-30.66L300.52-30.66Q300.52-30.47 300.49-30.27 300.47-30.08 300.47-29.93L300.47-29.93Q300.47-29.25 300.64-28.54 300.81-27.83 300.86-27.15L300.86-27.15Q301.84-25.44 303.15-24.05 304.47-22.66 305.99-21.48 307.5-20.31 309.14-19.29 310.77-18.26 312.38-17.29L312.38-17.29Q312.97-17.33 313.46-17.16 313.94-16.99 314.48-16.94L314.48-16.94Q315.07-16.5 315.85-16.26L315.85-16.26 317.41-15.77Q318.19-15.53 318.93-15.21 319.66-14.89 320.15-14.36L320.15-14.36Q320.39-14.31 320.59-14.23 320.78-14.16 321.02-14.16L321.02-14.16Q321.32-14.16 321.37-14.36L321.37-14.36Q323.56-13.53 325.66-12.52 327.76-11.52 330.11-10.99L330.11-10.99Q331.03-10.21 332.16-9.62 333.28-9.03 334.4-8.42 335.53-7.81 336.55-7.1 337.58-6.4 338.36-5.42L338.36-5.42Q338.46-4.49 338.77-3.64 339.09-2.78 339.09-1.81ZM383.62-31.4L383.77-31.4Q383.57-30.76 383.13-30.22L383.13-30.22 382.3-29.2Q381.91-28.71 381.64-28.15 381.37-27.59 381.47-26.86L381.47-26.86Q381.37-26.86 381.23-26.88 381.08-26.9 380.98-26.9L380.98-26.9Q380.2-26.9 379.79-26.54 379.37-26.17 378.69-25.93L378.69-25.93Q378.59-26.22 378.44-26.49 378.3-26.76 378-26.86L378-26.86Q376.83-26.61 375.66-26.49 374.49-26.37 373.32-26.17L373.32-26.17Q372.78-26.07 372.24-25.9 371.71-25.73 371.12-25.59L371.12-25.59Q370.83-25.49 370.49-25.51 370.14-25.54 369.8-25.49L369.8-25.49Q368.63-25.44 367.26-25.32 365.9-25.2 364.82-24.56L364.82-24.56Q364.33-24.66 363.8-24.71 363.26-24.76 362.72-24.76L362.72-24.76Q361.55-24.76 360.16-24.54 358.77-24.32 357.69-23.68L357.69-23.68Q357.45-23.78 357.18-23.83 356.91-23.88 356.57-23.88L356.57-23.88Q356.47-23.88 356.42-23.85 356.37-23.83 356.28-23.83L356.28-23.83Q356.23-23.39 356.4-22.97 356.57-22.56 357.01-22.31L357.01-22.31Q356.81-21.78 356.81-21.14L356.81-21.14Q356.81-20.31 356.94-19.48 357.06-18.65 357.06-17.82L357.06-17.82Q357.06-16.89 356.81-16.36L356.81-16.36Q357.3-14.89 357.3-13.23L357.3-13.23Q357.3-12.65 357.23-12.08 357.16-11.52 357.16-10.89L357.16-10.89Q357.16-10.35 357.55-10.03 357.94-9.72 357.94-9.18L357.94-9.18Q357.94-8.98 357.84-8.79L357.84-8.79Q358.52-8.94 359.16-9.2 359.79-9.47 360.48-9.47L360.48-9.47Q360.87-9.47 361.23-9.33 361.6-9.18 361.89-8.94L361.89-8.94Q361.84-8.69 361.82-8.4 361.79-8.11 361.79-7.81L361.79-7.81Q361.79-7.28 361.82-6.81 361.84-6.35 361.89-5.81L361.89-5.81Q361.5-5.13 360.99-4.59 360.48-4.05 360.28-3.22L360.28-3.22Q359.55-3.22 358.99-2.91 358.42-2.59 357.94-2.22 357.45-1.86 356.96-1.54 356.47-1.22 355.89-1.22L355.89-1.22Q355.15-1.22 354.86-1.44 354.57-1.66 354.42-1.9 354.27-2.15 354.15-2.34 354.03-2.54 353.64-2.49L353.64-2.49Q353.54-3.13 353.25-3.69 352.96-4.25 352.64-4.79 352.32-5.32 352-5.88 351.69-6.45 351.54-7.03L351.54-7.03Q351.25-8.3 351.3-9.67 351.34-11.04 350.86-12.3L350.86-12.3Q350.95-12.99 351-13.7 351.05-14.4 351.05-15.09L351.05-15.09Q351.05-16.46 350.98-17.8 350.91-19.14 350.86-20.56L350.86-20.56Q350.51-21 350.44-21.56 350.37-22.12 350.32-22.66L350.32-22.66Q350.17-22.8 350-22.95 349.83-23.1 349.78-23.34L349.78-23.34Q349.39-23.44 349.2-23.44L349.2-23.44Q348.51-23.44 348.05-23.12 347.58-22.8 347.19-22.8L347.19-22.8Q346.8-22.8 346.46-22.9 346.12-23 345.78-23L345.78-23Q345.49-23 345.46-22.88 345.44-22.75 345.24-22.66L345.24-22.66Q345.09-22.56 344.56-22.46 344.02-22.36 343.36-22.29 342.7-22.22 342.09-22.17 341.48-22.12 341.29-22.12L341.29-22.12Q340.5-22.12 340.09-22.44 339.67-22.75 339.09-23.14L339.09-23.14Q339.19-23.44 339.19-23.54L339.19-23.54Q339.19-24.02 338.89-24.34 338.6-24.66 338.6-24.9L338.6-24.9Q338.6-25.44 339.02-25.73 339.43-26.03 339.48-26.66L339.48-26.66Q340.6-27.15 341.77-27.39 342.95-27.64 344.17-27.78 345.39-27.93 346.58-28.13 347.78-28.32 348.95-28.76L348.95-28.76Q349.29-28.71 349.61-28.69 349.93-28.66 350.27-28.66L350.27-28.66Q351.74-28.66 353.18-28.98 354.62-29.3 356.13-29.3L356.13-29.3Q356.52-29.3 356.91-29.25 357.3-29.2 357.69-29.1L357.69-29.1Q359.65-29.39 361.57-29.74 363.5-30.08 365.55-30.32L365.55-30.32Q366.53-30.42 367.48-30.49 368.43-30.57 369.41-30.71L369.41-30.71Q369.75-30.76 369.92-30.88 370.09-31.01 370.09-31.4L370.09-31.4Q370.53-31.2 371.07-31.2L371.07-31.2Q371.9-31.2 372.68-31.49 373.46-31.79 374.29-31.79L374.29-31.79Q374.49-31.79 374.64-31.76 374.78-31.74 374.93-31.74L374.93-31.74Q375.27-31.74 375.29-32.06 375.32-32.37 375.76-32.47L375.76-32.47Q376.1-32.57 376.74-32.62 377.37-32.67 378.08-32.74 378.79-32.81 379.4-32.93 380.01-33.06 380.3-33.3L380.3-33.3 380.64-33.84Q381.52-33.79 381.94-33.08 382.35-32.37 382.4-31.54L382.4-31.54Q382.59-31.35 382.96-31.37 383.33-31.4 383.62-31.4L383.62-31.4ZM439.38-8.5L439.38-8.5Q439.28-7.76 438.87-7.37 438.45-6.98 437.91-6.64L437.91-6.64Q437.67-6.69 437.45-6.71 437.23-6.74 436.99-6.74L436.99-6.74Q435.47-6.79 434.13-6.35 432.79-5.91 431.37-5.71L431.37-5.71Q430.88-5.62 430.47-5.64 430.05-5.66 429.61-5.57L429.61-5.57Q428.05-5.32 426.29-5.18 424.54-5.03 422.78-4.81 421.02-4.59 419.34-4.27 417.65-3.96 416.19-3.37L416.19-3.37Q416.04-3.47 415.89-3.59 415.75-3.71 415.55-3.71L415.55-3.71Q415.06-3.71 414.62-3.56 414.18-3.42 413.74-3.47L413.74-3.47Q413.26-3.17 412.69-3.05 412.13-2.93 411.57-2.86 411.01-2.78 410.47-2.64 409.94-2.49 409.45-2.1L409.45-2.1Q409.06-2.29 408.5-2.32 407.93-2.34 407.74-2.69L407.74-2.69Q406.62-2.15 405.37-2 404.13-1.86 402.86-1.9L402.86-1.9Q402.03-1.95 400.95-2.15 399.88-2.34 398.8-2.71 397.73-3.08 396.8-3.59 395.87-4.1 395.39-4.83L395.39-4.83Q395.04-5.32 394.9-5.91 394.75-6.49 394.21-6.79L394.21-6.79Q394.36-7.91 394.56-8.98 394.75-10.06 394.95-11.18L394.95-11.18Q395.92-12.01 396.8-12.94 397.68-13.87 398.46-14.89L398.46-14.89Q399.39-15.33 400.19-15.97 401-16.6 401.81-17.26 402.61-17.92 403.42-18.55 404.22-19.19 405.15-19.68L405.15-19.68Q405.3-20.02 405.57-20.24 405.83-20.46 406.13-20.68 406.42-20.9 406.66-21.17 406.91-21.44 407.01-21.83L407.01-21.83Q408.72-22.85 409.98-24.41 411.25-25.98 411.64-27.93L411.64-27.93Q410.81-28.61 409.77-28.83 408.72-29.05 407.59-29.15L407.59-29.15Q406.62-29.2 405.57-29.15 404.52-29.1 403.44-29.2L403.44-29.2Q402.37-28.86 401.22-28.76 400.07-28.66 398.95-28.59 397.83-28.52 396.73-28.3 395.63-28.08 394.6-27.49L394.6-27.49Q394.41-27.49 394.24-27.54 394.07-27.59 393.87-27.59L393.87-27.59Q392.31-27.64 390.94-26.98 389.57-26.32 388.26-25.68L388.26-25.68Q388.16-25.49 388.16-25.39L388.16-25.39Q388.16-25.1 388.28-24.83 388.4-24.56 388.4-24.27L388.4-24.27Q388.35-24.22 388.35-24.17 388.35-24.12 388.31-24.07L388.31-24.07Q388.26-23.83 388.18-23.63 388.11-23.44 388.01-23.19L388.01-23.19Q387.48-21.63 387.43-20.12L387.43-20.12Q387.38-18.85 387.43-17.63 387.48-16.41 387.43-15.14L387.43-15.14Q387.33-13.57 386.94-12.21L386.94-12.21Q387.18-11.04 387.38-9.74 387.57-8.45 387.87-7.18 388.16-5.91 388.57-4.71 388.99-3.52 389.67-2.44L389.67-2.44Q389.62-2.34 389.72-2.29 389.82-2.25 389.92-2.25L389.92-2.25 390.31-2.25Q390.55-2.25 390.5-2.05L390.5-2.05Q390.6-1.9 390.65-1.78 390.7-1.66 390.84-1.56L390.84-1.56Q390.94-1.42 390.84-1.17L390.84-1.17Q390.8-0.2 390.36 0.63 389.92 1.46 389.82 2.44L389.82 2.44Q389.23 2.59 388.74 2.59L388.74 2.59Q387.91 2.54 387.28 2.12 386.64 1.71 386.11 1.12 385.57 0.54 385.08-0.07 384.59-0.68 384.01-1.12L384.01-1.12Q383.67-2.49 383.35-4.15 383.03-5.81 382.3-6.98L382.3-6.98Q382.49-7.42 382.49-8.06L382.49-8.06Q382.54-9.03 382.32-9.99 382.1-10.94 382.2-11.91L382.2-11.91Q382.2-12.45 382.32-12.99 382.45-13.53 382.49-14.06L382.49-14.06Q382.54-14.89 382.32-15.67 382.1-16.46 382.15-17.29L382.15-17.29Q382.2-17.68 382.32-18.04 382.45-18.41 382.69-18.7L382.69-18.7Q382.45-19.29 382.54-19.82L382.54-19.82Q382.59-20.65 382.74-21.39 382.89-22.12 382.93-22.85L382.93-22.85Q382.93-23.24 382.89-23.61 382.84-23.97 382.74-24.32L382.74-24.32 382.3-24.46Q382.01-24.46 381.74-24.32 381.47-24.17 381.27-23.97 381.08-23.78 380.93-23.66 380.79-23.54 380.64-23.54L380.64-23.54Q380.54-23.54 380.42-23.56 380.3-23.58 380.2-23.58L380.2-23.58Q380.1-23.58 379.83-23.39 379.56-23.19 379.2-22.97 378.83-22.75 378.49-22.53 378.15-22.31 377.95-22.27L377.95-22.27Q377.42-22.36 377.1-22.63 376.78-22.9 376.51-23.17 376.24-23.44 375.95-23.66 375.66-23.88 375.22-23.83L375.22-23.83Q375.07-24.12 375.05-24.46 375.02-24.8 375.07-25.15L375.07-25.15 375.07-25.93Q375.41-26.56 375.98-26.98 376.54-27.39 377.17-27.69L377.17-27.69 378.44-28.27Q379.08-28.56 379.61-29L379.61-29 380.05-29Q380.93-28.96 381.59-29.35 382.25-29.74 382.84-30.25 383.42-30.76 384.03-31.3 384.64-31.84 385.38-32.13L385.38-32.13Q385.91-31.88 386.5-31.71 387.08-31.54 387.72-31.49L387.72-31.49Q388.35-31.49 389.04-31.69 389.72-31.88 390.11-32.42L390.11-32.42Q390.36-32.32 390.53-32.3 390.7-32.28 390.94-32.28L390.94-32.28Q391.67-32.23 392.41-32.5 393.14-32.76 393.82-33.15L393.82-33.15Q394.8-33.11 395.75-33.28 396.7-33.45 397.66-33.64 398.61-33.84 399.56-34.01 400.51-34.18 401.49-34.13L401.49-34.13Q403.1-34.08 404.66-34.42 406.23-34.77 407.84-34.67L407.84-34.67Q408.96-34.62 410.06-34.5 411.16-34.38 412.28-34.42L412.28-34.42Q412.91-34.13 413.43-33.91 413.94-33.69 414.72-33.79L414.72-33.79Q416.28-32.47 417.55-30.71L417.55-30.71 417.55-29.88Q417.5-28.76 417.16-27.69 416.82-26.61 416.36-25.56 415.89-24.51 415.36-23.51 414.82-22.51 414.33-21.53L414.33-21.53Q411.16-18.65 407.98-15.82 404.81-12.99 401.44-10.35L401.44-10.35Q401.34-9.86 401.17-9.47 401-9.08 400.95-8.64L400.95-8.64Q400.95-8.4 401-8.25L401-8.25Q401.34-8.15 401.61-7.89 401.88-7.62 401.78-7.18L401.78-7.18 402.22-7.18Q402.47-7.18 402.47-6.98L402.47-6.98 403.25-6.93Q405.1-6.84 406.96-7.03 408.81-7.23 410.69-7.47 412.57-7.71 414.43-7.93 416.28-8.15 418.14-8.2L418.14-8.2Q418.58-8.35 419.07-8.45 419.56-8.54 419.95-8.84L419.95-8.84 420.09-8.84Q420.43-8.84 420.6-8.64 420.78-8.45 421.12-8.4L421.12-8.4Q421.36-8.4 421.63-8.5 421.9-8.59 422.19-8.64L422.19-8.64Q422.88-8.84 423.63-8.89 424.39-8.94 425.12-9.03L425.12-9.03Q427.95-9.28 430.74-9.35 433.52-9.42 436.3-10.06L436.3-10.06Q436.55-9.72 436.99-9.59 437.43-9.47 437.91-9.35 438.4-9.23 438.82-9.08 439.23-8.94 439.38-8.5ZM436.06-6.69L436.06-6.69Q435.81-6.3 435.47-5.98 435.13-5.66 434.84-5.32L434.84-5.32Q434.49-5.18 434.08-5.18 433.66-5.18 433.3-5.2 432.93-5.22 432.61-5.2 432.3-5.18 432.1-4.98L432.1-4.98Q431.71-5.08 431.52-5.35 431.32-5.62 430.83-5.66L430.83-5.66Q430.64-5.71 430.44-5.66L430.44-5.66Q429.71-6.49 429.1-7.42 428.49-8.35 427.95-9.18L427.95-9.18Q427.9-10.99 427.66-12.84L427.66-12.84Q427.61-13.28 427.51-13.72 427.41-14.16 427.37-14.55L427.37-14.55Q427.37-15.04 427.44-15.5 427.51-15.97 427.56-16.36L427.56-16.36Q427.76-17.77 428-19.14 428.24-20.51 428.44-21.92L428.44-21.92Q428.63-23.19 428.63-24.58 428.63-25.98 428.2-27.2L428.2-27.2 428.15-27.44Q428.24-27.83 428.37-28.1 428.49-28.37 428.54-28.71L428.54-28.71Q428.63-29.25 428.29-29.49L428.29-29.49Q428.44-29.88 428.78-30 429.12-30.13 429.17-30.57L429.17-30.57Q429.22-30.76 429.17-30.96L429.17-30.96Q429.56-31.1 429.98-31.23 430.39-31.35 430.78-31.25L430.78-31.25Q431.42-31.15 431.91-30.83 432.39-30.52 432.83-30.13L432.83-30.13Q433.62-27.78 433.47-25.17 433.32-22.56 432.98-19.92 432.64-17.29 432.54-14.77 432.44-12.26 433.32-10.11L433.32-10.11 433.42-10.06Q433.66-10.01 433.81-10.23 433.96-10.45 434.2-10.4L434.2-10.4Q434.4-10.3 434.45-10.3L434.45-10.3Q434.64-9.33 435.08-8.45 435.52-7.57 436.06-6.69ZM479.32-2.49L479.32-2.49Q479.32-2.1 478.97-1.86 478.63-1.61 478.19-1.37L478.19-1.37 477.31-0.93Q476.87-0.73 476.73-0.39L476.73-0.39Q476.19-0.54 475.68-0.59 475.17-0.63 474.68-0.63L474.68-0.63Q474.04-0.63 473.36-0.51 472.68-0.39 472.28 0.15L472.28 0.15Q472.04 0.05 471.85 0.05L471.85 0.05 471.45 0.05Q470.72 0.05 469.97 0.17 469.21 0.29 468.48 0.29L468.48 0.29Q468.09 0.29 467.72 0.24 467.35 0.2 467.06-0.05L467.06-0.05Q466.62 0.1 466.13 0.1L466.13 0.1Q465.5 0.1 464.91-0.1 464.33-0.29 463.76-0.56 463.2-0.83 462.62-1.07 462.03-1.32 461.44-1.46L461.44-1.46 461.1-2.15Q460.32-2.29 459.66-2.61 459-2.93 458.37-3.32 457.73-3.71 457.12-4.08 456.51-4.44 455.88-4.59L455.88-4.59Q455.63-4.79 455.44-4.96 455.24-5.13 455.15-5.47L455.15-5.47Q454.51-5.62 453.97-5.86L453.97-5.86 452.95-6.4Q452.46-6.69 451.85-6.91 451.24-7.13 450.41-7.18L450.41-7.18Q450.12-7.62 449.58-8.01 449.04-8.4 448.51-8.4L448.51-8.4Q448.16-8.4 447.97-8.25L447.97-8.25 447.97-8.01Q447.97-7.42 448.31-6.84 448.65-6.25 449.19-6.01L449.19-6.01Q449.14-5.91 449.14-5.71L449.14-5.71Q449.14-5.42 449.26-5.13 449.38-4.83 449.73-4.74L449.73-4.74Q449.53-4.2 449.24-3.64 448.94-3.08 448.51-2.59 448.07-2.1 447.55-1.78 447.04-1.46 446.41-1.46L446.41-1.46Q446.21-1.37 446.14-1.17 446.06-0.98 446.04-0.76 446.01-0.54 445.94-0.34 445.87-0.15 445.72-0.05L445.72-0.05Q445.53 0 445.18 0L445.18 0Q444.7 0 444.35-0.15 444.01-0.29 443.62-0.54L443.62-0.54 443.62-0.73Q443.62-1.32 443.4-1.66 443.18-2 442.91-2.32 442.65-2.64 442.43-2.98 442.21-3.32 442.21-3.91L442.21-3.91Q442.06-3.81 441.89-3.76 441.72-3.71 441.67-3.56L441.67-3.56Q441.57-4.05 441.57-4.39L441.57-4.39Q441.57-5.37 441.89-6.25 442.21-7.13 442.21-8.11L442.21-8.11 442.21-8.84Q442.21-9.96 442.16-11.04 442.11-12.11 442.11-13.18L442.11-13.18Q442.11-14.11 442.16-15.01 442.21-15.92 442.35-16.85L442.35-16.85Q442.89-20.07 443.26-23.27 443.62-26.46 444.45-29.64L444.45-29.64Q444.4-29.88 444.33-30.13 444.26-30.37 444.26-30.62L444.26-30.62Q444.26-30.81 444.31-30.86L444.31-30.86Q444.5-31.84 445.18-32.5 445.87-33.15 446.94-33.15L446.94-33.15 447.09-33.15Q447.68-32.91 447.99-32.45 448.31-31.98 448.99-32.08L448.99-32.08Q448.99-31.98 448.97-31.88 448.94-31.79 448.94-31.69L448.94-31.69Q448.94-31.15 449.24-30.91 449.53-30.66 449.92-30.37L449.92-30.37Q449.68-29.88 449.6-29.25 449.53-28.61 449.48-27.98 449.43-27.34 449.31-26.76 449.19-26.17 448.85-25.78L448.85-25.78Q449.04-25.29 449.09-24.8 449.14-24.32 449.14-23.78L449.14-23.78Q449.14-23.24 449.09-22.68 449.04-22.12 449.04-21.53L449.04-21.53Q449.04-21 449.19-20.56L449.19-20.56Q450.26-20.56 450.41-21.58L450.41-21.58Q451.68-21.92 452.68-22.53 453.68-23.14 454.61-23.83 455.54-24.51 456.44-25.24 457.34-25.98 458.47-26.51L458.47-26.51 458.47-26.61Q458.47-26.86 458.61-26.93 458.76-27 458.66-27.34L458.66-27.34Q459.39-27.59 459.91-28 460.42-28.42 460.86-28.91L460.86-28.91 461.79-29.93Q462.27-30.47 462.86-30.86L462.86-30.86Q463.25-31.69 463.57-32.62 463.89-33.54 464.42-34.33L464.42-34.33Q465.35-34.33 466.45-34.18 467.55-34.03 468.33-33.5L468.33-33.5Q468.23-33.11 468.67-32.96L468.67-32.96Q468.13-30.91 467.06-29.27 465.99-27.64 464.28-26.51L464.28-26.51Q464.03-25.98 463.64-25.59 463.25-25.2 462.86-24.83 462.47-24.46 462.08-24.07 461.69-23.68 461.44-23.14L461.44-23.14Q460.86-23.05 460.44-22.8 460.03-22.56 459.66-22.24 459.3-21.92 458.88-21.66 458.47-21.39 457.98-21.24L457.98-21.24Q457.59-20.75 457.07-20.41 456.56-20.07 456.05-19.75 455.54-19.43 455.1-19.07 454.66-18.7 454.46-18.12L454.46-18.12 453.19-18.12Q452.66-17.19 451.8-16.58 450.95-15.97 450.07-15.43L450.07-15.43Q450.21-14.84 450.6-14.48 451-14.11 451.46-13.82 451.92-13.53 452.39-13.21 452.85-12.89 453.19-12.45L453.19-12.45Q455.24-11.67 457.15-10.67 459.05-9.67 460.76-8.25L460.76-8.25Q460.86-8.3 461.01-8.3L461.01-8.3Q461.4-8.3 461.64-8.08 461.88-7.86 462.32-7.91L462.32-7.91Q462.52-7.42 462.86-7.25 463.2-7.08 463.57-6.98 463.93-6.88 464.28-6.69 464.62-6.49 464.76-6.01L464.76-6.01Q465.5-5.96 466.11-5.71 466.72-5.47 467.21-4.93L467.21-4.93 467.79-4.93Q469.35-4.93 470.82-4.64 472.28-4.35 473.8-4.35L473.8-4.35Q474.58-4.35 475.31-4.47 476.04-4.59 476.73-4.93L476.73-4.93Q476.97-4.79 477.26-4.64 477.56-4.49 477.9-4.49L477.9-4.49Q478.14-4.49 478.63-4.59L478.63-4.59Q478.68-4.05 479-3.56 479.32-3.08 479.32-2.49ZM502.85-31.05L502.85-31.05 502.85-30.86Q502.51-30.76 502.51-30.37L502.51-30.37Q501.97-30.13 501.38-30 500.8-29.88 500.26-29.64L500.26-29.64Q499.72-29.69 499.16-29.71 498.6-29.74 498.06-29.74L498.06-29.74Q496.6-29.74 495.13-29.64 493.67-29.54 492.2-29.64L492.2-29.64Q491.52-29.25 490.71-29.03 489.91-28.81 489.18-28.81L489.18-28.81Q488.59-28.81 488.15-28.96L488.15-28.96Q486.98-28.37 485.59-27.98 484.2-27.59 482.78-27.22 481.36-26.86 480.07-26.39 478.78-25.93 477.8-25.1L477.8-25.1Q477.7-24.41 477.65-23.75 477.6-23.1 477.6-22.46L477.6-22.46Q477.6-21.78 477.68-21.19 477.75-20.61 477.99-20.02L477.99-20.02Q478.24-19.92 478.56-19.87 478.87-19.82 479.12-19.82L479.12-19.82Q479.36-19.82 479.61-19.9 479.85-19.97 479.95-20.21L479.95-20.21Q480.68-20.31 481.41-20.29 482.15-20.26 482.88-20.26L482.88-20.26Q483.61-20.26 484.32-20.31 485.03-20.36 485.71-20.56L485.71-20.56Q486.49-20.75 487.25-20.8 488-20.85 488.74-20.9 489.47-20.95 490.25-21.07 491.03-21.19 491.86-21.58L491.86-21.58Q492.5-21.34 493.16-21.34 493.82-21.34 494.45-21.24L494.45-21.24Q494.79-21 495.01-20.7 495.23-20.41 495.23-20.02L495.23-20.02Q495.23-19.34 494.74-18.65 494.25-17.97 493.96-17.38L493.96-17.38 493.42-17.38Q492.25-17.38 491.15-17.07 490.06-16.75 488.96-16.33 487.86-15.92 486.76-15.6 485.66-15.28 484.49-15.28L484.49-15.28Q484.29-15.28 484.27-15.06 484.24-14.84 484.15-14.75L484.15-14.75Q483.9-14.79 483.41-14.79L483.41-14.79Q482.29-14.79 481.27-14.55 480.24-14.31 479.17-14.31L479.17-14.31Q478.87-14.31 478.58-14.33 478.29-14.36 477.99-14.4L477.99-14.4Q477.75-14.01 477.36-13.89 476.97-13.77 476.63-13.48L476.63-13.48Q476.48-13.04 476.46-12.4 476.43-11.77 476.41-11.11 476.38-10.45 476.29-9.86 476.19-9.28 475.9-8.94L475.9-8.94Q475.94-8.69 476.29-8.76 476.63-8.84 476.63-8.45L476.63-8.45Q476.63-8.01 476.53-7.52 476.43-7.03 476.43-6.54L476.43-6.54Q476.43-5.62 476.65-4.52 476.87-3.42 477.34-2.49 477.8-1.56 478.58-0.95 479.36-0.34 480.53-0.34L480.53-0.34Q481.32-0.34 482-0.63 482.68-0.93 483.12-1.61L483.12-1.61 483.37-1.66Q483.56-1.66 483.73-1.61 483.9-1.56 484.1-1.56L484.1-1.56Q484.39-1.56 484.86-1.93 485.32-2.29 485.88-2.78 486.44-3.27 487.03-3.74 487.61-4.2 488.15-4.39L488.15-4.39Q488.49-5.08 488.81-5.76 489.13-6.45 489.76-6.84L489.76-6.84 489.76-8.25Q490.25-8.79 490.81-9.23 491.37-9.67 491.67-10.35L491.67-10.35Q491.91-10.25 492.13-10.21 492.35-10.16 492.59-10.16L492.59-10.16Q492.84-10.16 493.11-10.21 493.38-10.25 493.62-10.35L493.62-10.35Q494.01-9.81 494.23-9.16 494.45-8.5 494.79-7.91L494.79-7.91Q494.35-7.03 493.77-5.81 493.18-4.59 492.5-3.37 491.81-2.15 491.06-1.05 490.3 0.05 489.57 0.63L489.57 0.63Q489.42 0.78 488.93 0.98L488.93 0.98Q488.4 1.37 487.96 1.73 487.52 2.1 487.13 2.59L487.13 2.59Q485.71 3.03 484.42 3.76 483.12 4.49 481.85 5.18L481.85 5.18Q481.27 5.03 480.58 5.03L480.58 5.03Q480 5.03 479.41 5.1 478.82 5.18 478.14 5.18L478.14 5.18Q477.95 4.93 477.58 4.86 477.21 4.79 477.31 4.35L477.31 4.35Q475.65 4.25 474.63 3.44 473.6 2.64 472.89 1.46 472.18 0.29 471.74-1.07 471.31-2.44 470.82-3.71L470.82-3.71 470.82-3.86Q470.82-4.1 471.01-4.15 471.21-4.2 471.21-4.44L471.21-4.44Q471.21-4.54 471.16-4.59L471.16-4.59Q471.01-5.13 470.91-5.52 470.82-5.91 470.82-6.45L470.82-6.45Q470.82-7.23 470.91-7.98 471.01-8.74 471.01-9.52L471.01-9.52Q471.01-10.3 470.82-10.89L470.82-10.89Q471.01-11.13 471.13-11.55 471.26-11.96 471.31-12.4 471.35-12.84 471.38-13.28 471.4-13.72 471.5-14.06L471.5-14.06Q471.31-14.6 471.16-15.01 471.01-15.43 471.01-16.02L471.01-16.02 471.01-16.36Q471.5-17.19 471.84-18.07 472.18-18.95 472.57-19.87L472.57-19.87 472.57-20.02Q472.57-21.44 472.48-22.85 472.38-24.27 472.38-25.68L472.38-25.68 472.38-26.61Q472.38-27.1 472.43-27.54L472.43-27.54Q472.82-27.73 473.01-28.08 473.21-28.42 473.6-28.61L473.6-28.61 475.21-28.61 475.5-29.1Q475.65-29.35 475.7-29.64L475.7-29.64Q476.24-29.79 476.75-30.05 477.26-30.32 477.7-30.62L477.7-30.62Q478.39-31.01 478.95-31.32 479.51-31.64 480.07-31.86 480.63-32.08 481.27-32.23 481.9-32.37 482.73-32.47L482.73-32.47Q483.12-32.47 483.24-32.62 483.37-32.76 483.61-32.96L483.61-32.96Q484.2-32.86 484.78-32.79 485.37-32.71 485.95-32.71L485.95-32.71Q487.13-32.71 488.15-33.15L488.15-33.15Q489.62-33.15 491.06-33.2 492.5-33.25 493.96-33.25L493.96-33.25Q495.23-33.25 496.5-33.15 497.77-33.06 498.99-32.81L498.99-32.81Q499.43-32.96 499.97-32.96L499.97-32.96Q500.55-32.96 501.16-32.84 501.77-32.71 502.36-32.81L502.36-32.81Q502.41-32.28 502.63-31.91 502.85-31.54 502.85-31.05ZM572.62-0.24L572.62-0.24Q572.33 0.15 571.89 0.29 571.45 0.44 571.01 0.54 570.57 0.63 570.1 0.76 569.64 0.88 569.3 1.17L569.3 1.17Q569.2 1.22 569.18 1.27 569.15 1.32 569.05 1.32L569.05 1.32Q568.91 1.32 568.79 1.1 568.66 0.88 568.42 0.78L568.42 0.78Q567.15 1.46 565.69 1.98 564.22 2.49 562.78 3.05 561.34 3.61 559.97 4.27 558.61 4.93 557.58 5.91L557.58 5.91Q556.8 6.01 555.99 6.27 555.19 6.54 554.8 7.32L554.8 7.32 554.65 7.32Q554.45 7.32 554.36 7.2 554.26 7.08 554.06 7.08L554.06 7.08Q553.72 7.08 553.62 7.28 553.53 7.47 553.5 7.69 553.48 7.91 553.43 8.11 553.38 8.3 553.14 8.3L553.14 8.3Q553.04 8.3 552.94 8.13 552.84 7.96 552.45 8.01L552.45 8.01Q550.65 8.98 548.69 9.99 546.74 10.99 545.32 12.55L545.32 12.55Q545.23 12.45 545.08 12.45L545.08 12.45Q544.98 12.45 544.93 12.45L544.93 12.45 544.88 12.5Q544.79 12.5 544.74 12.45 544.69 12.4 544.64 12.4L544.64 12.4Q543.52 13.38 542.27 14.18 541.03 14.99 539.76 15.77 538.49 16.55 537.27 17.36 536.05 18.16 534.97 19.19L534.97 19.19Q534.29 19.24 533.61 19.48 532.92 19.73 532.26 19.97 531.6 20.21 530.92 20.43 530.24 20.65 529.55 20.65L529.55 20.65Q528.28 20.65 527.45 19.53L527.45 19.53Q527.31 19.63 527.18 19.68 527.06 19.73 526.92 19.73L526.92 19.73Q526.52 19.73 526.21 19.41 525.89 19.09 525.35 19.19L525.35 19.19Q524.72 18.51 524.45 17.46 524.18 16.41 523.79 15.53L523.79 15.53Q523.89 13.62 524.45 11.84 525.01 10.06 525.16 8.15L525.16 8.15Q525.6 7.71 525.84 7.15 526.09 6.59 526.31 5.98 526.52 5.37 526.77 4.79 527.01 4.2 527.45 3.81L527.45 3.81Q527.75 2.34 528.43 1.03 529.11-0.29 529.36-1.81L529.36-1.81Q529.75-2.05 530.02-2.39 530.28-2.73 530.63-3.03L530.63-3.03 530.63-3.32Q530.63-3.71 530.43-3.91L530.43-3.91Q530.77-4.79 531.19-5.57 531.6-6.35 531.99-7.13 532.38-7.91 532.68-8.74 532.97-9.57 533.07-10.55L533.07-10.55Q533.46-10.89 533.65-11.4 533.85-11.91 534.02-12.43 534.19-12.94 534.41-13.38 534.63-13.82 535.17-14.06L535.17-14.06Q535.12-14.16 535.12-14.31L535.12-14.31Q535.12-14.79 535.39-15.19 535.66-15.58 535.66-16.02L535.66-16.02Q535.66-16.26 535.51-16.5L535.51-16.5Q536.49-18.55 537.41-20.53 538.34-22.51 538.83-24.76L538.83-24.76Q539.32-25 539.42-25.49 539.51-25.98 539.86-26.37L539.86-26.37 539.86-26.61Q539.86-27.44 540.22-28.47 540.59-29.49 541.12-30.18L541.12-30.18Q541.37-31.88 541.69-33.76 542-35.64 542.69-37.21L542.69-37.21Q542.59-37.55 542.42-37.89 542.25-38.23 542.15-38.62L542.15-38.62Q540.93-37.94 539.37-37.4L539.37-37.4Q539.07-37.3 538.73-37.23 538.39-37.16 538.15-37.01L538.15-37.01Q537.85-36.91 537.8-36.55 537.76-36.18 537.76-35.94L537.76-35.94Q537.17-35.94 536.83-35.69 536.49-35.45 536.17-35.13 535.85-34.81 535.51-34.55 535.17-34.28 534.63-34.18L534.63-34.18Q534.04-33.59 533.65-33.28 533.26-32.96 532.53-32.67L532.53-32.67Q532.29-32.57 532.04-32.28L532.04-32.28 531.55-31.69Q531.31-31.4 531.09-31.2 530.87-31.01 530.63-31.05L530.63-31.05Q530.48-30.62 530.21-30.32 529.94-30.03 529.65-29.76 529.36-29.49 529.16-29.15 528.97-28.81 529.02-28.27L529.02-28.27Q528.82-28.08 528.67-28.08L528.67-28.08Q528.53-28.08 528.33-28.27L528.33-28.27Q528.23-27.69 527.97-27.32 527.7-26.95 527.36-26.66 527.01-26.37 526.62-26.07 526.23-25.78 525.89-25.44L525.89-25.44Q525.45-25.49 525.13-25.63 524.82-25.78 524.47-25.93 524.13-26.07 523.77-26.15 523.4-26.22 522.86-26.17L522.86-26.17Q522.91-26.46 522.77-26.61 522.62-26.76 522.37-26.86L522.37-26.86Q522.37-27.25 522.4-27.83 522.42-28.42 522.45-29.03 522.47-29.64 522.57-30.18 522.67-30.71 522.86-31.05L522.86-31.05Q523.16-31.54 523.82-31.93 524.47-32.32 525.23-32.74 525.99-33.15 526.7-33.62 527.4-34.08 527.84-34.77L527.84-34.77Q527.89-34.72 528.04-34.72L528.04-34.72Q528.43-34.72 528.67-34.91L528.67-34.91Q528.92-35.35 529.33-35.55 529.75-35.74 530.09-36.13L530.09-36.13Q530.24-36.28 530.26-36.5 530.28-36.72 530.43-36.87L530.43-36.87Q530.58-37.01 530.99-37.16 531.41-37.3 531.65-37.55L531.65-37.55Q531.94-37.79 532.12-38.09 532.29-38.38 532.53-38.62L532.53-38.62Q532.92-38.92 533.39-39.06 533.85-39.21 534.29-39.45L534.29-39.45Q534.73-39.75 535.09-40.14 535.46-40.53 535.66-41.06L535.66-41.06Q536.63-41.5 537.56-41.97 538.49-42.43 539.37-42.97L539.37-42.97Q539.86-43.26 540.29-43.63 540.73-43.99 541.2-44.34 541.66-44.68 542.17-44.92 542.69-45.17 543.27-45.17L543.27-45.17Q544.01-45.17 544.4-44.9 544.79-44.63 545.1-44.31 545.42-43.99 545.79-43.65 546.15-43.31 546.74-43.16L546.74-43.16Q547.23-42.38 547.4-41.48 547.57-40.58 547.62-39.62 547.67-38.67 547.64-37.74 547.62-36.82 547.77-35.94L547.77-35.94Q547.47-35.11 547.08-34.33 546.69-33.54 546.69-32.67L546.69-32.67Q546.69-32.32 546.74-32.08L546.74-32.08 546.15-32.08Q545.96-30.47 545.42-28.93 544.88-27.39 544.2-25.88L544.2-25.88 542.88-22.9Q542.25-21.44 541.81-19.87L541.81-19.87Q541.71-19.43 541.47-19.36 541.22-19.29 541.12-18.95L541.12-18.95Q540.88-18.41 540.73-17.77 540.59-17.14 540.34-16.55L540.34-16.55Q539.86-15.28 539.37-14.11 538.88-12.94 538.34-11.82L538.34-11.82 538.34-11.33Q538.34-11.08 538.49-11.08L538.49-11.08Q536.93-8.94 536.39-6.2L536.39-6.2Q536-5.91 535.83-5.49 535.66-5.08 535.31-4.79L535.31-4.79Q534.97-3.37 534.41-2.03 533.85-0.68 533.26 0.63 532.68 1.95 532.14 3.3 531.6 4.64 531.31 6.05L531.31 6.05Q530.77 6.54 530.46 7.23 530.14 7.91 529.92 8.69 529.7 9.47 529.53 10.25 529.36 11.04 529.16 11.67L529.16 11.67 528.67 13.43 528.67 14.4Q528.67 14.65 528.62 14.94 528.58 15.23 528.33 15.33L528.33 15.33Q528.43 15.67 528.6 15.87 528.77 16.06 528.67 16.41L528.67 16.41Q528.87 16.8 529.38 16.87 529.89 16.94 530.28 17.09L530.28 17.09Q530.68 16.99 530.72 16.65 530.77 16.31 530.97 16.06L530.97 16.06Q531.41 15.48 532.31 14.79 533.21 14.11 534.26 13.38 535.31 12.65 536.32 11.99 537.32 11.33 537.95 10.79L537.95 10.79 538.83 10.79Q540.59 9.67 542.35 8.62 544.1 7.57 546.01 6.74L546.01 6.74Q546.5 6.1 547.2 5.76 547.91 5.42 548.67 5.1 549.43 4.79 550.13 4.44 550.84 4.1 551.28 3.47L551.28 3.47Q551.82 3.37 552.45 3.22 553.09 3.08 553.38 2.54L553.38 2.54 553.58 2.54Q553.72 2.54 553.87 2.61 554.02 2.69 554.06 2.88L554.06 2.88Q554.41 2.78 554.48 2.44 554.55 2.1 554.8 1.86L554.8 1.86Q556.21 1.32 557.68 0.73 559.14 0.15 560.56-0.59L560.56-0.59Q561.24-0.59 562.1-0.78 562.95-0.98 563.39-1.66L563.39-1.66Q563.49-1.61 563.63-1.61L563.63-1.61Q564.17-1.61 564.68-1.78 565.2-1.95 565.73-2.17 566.27-2.39 566.81-2.59 567.35-2.78 567.93-2.83L567.93-2.83 568.03-2.83Q568.13-2.83 568.1-3.1 568.08-3.37 568.08-3.42L568.08-3.42Q568.08-3.61 568.27-3.56L568.27-3.56Q568.42-3.61 568.76-3.61L568.76-3.61Q569.3-3.61 569.76-3.39 570.23-3.17 570.67-2.88 571.11-2.59 571.54-2.27 571.98-1.95 572.47-1.81L572.47-1.81Q572.37-1.42 572.37-1.17L572.37-1.17Q572.37-0.93 572.45-0.71 572.52-0.49 572.62-0.24Z" opacity="1" transform="matrix(1,0,0,1,0,0)" fill="white" class="slogan-text-1" id="SvgjsPath1557"></path></svg></g></svg></g></svg></g></svg></g><g transform="matrix(1,0,0,1,0,0.4085350824977354)"><svg viewBox="0 0 163.4140329990986 163.4140329990986" height="163.4140329990986" width="163.4140329990986"><g><svg xmlns="http://www.w3.org/2000/svg" xmlns:xlink="http://www.w3.org/1999/xlink" version="1.1" x="0" y="0" viewBox="14 14 72 72" enable-background="new 0 0 100 100" xml:space="preserve" height="163.4140329990986" width="163.4140329990986" class="icon-icon-0" data-fill-palette-color="accent" id="SvgjsSvg1556"></svg></g></svg></g></svg></g><defs><mask></mask></defs><mask><g id="SvgjsG1555"><svg viewBox="0 0 395.52 110.00974852233439" height="110.00974852233439" width="395.52"><g><svg viewBox="0 0 590.4629980158063 164.23110316409407" height="110.00974852233439" width="395.52"><g></g><g transform="matrix(1,0,0,1,194.94299801580632,0.4085350824977354)"><svg viewBox="0 0 395.52 163.4140329990986" height="163.4140329990986" width="395.52"><g id="SvgjsG1553"><svg viewBox="0 0 395.52 163.4140329990986" height="163.4140329990986" width="395.52" id="SvgjsSvg1552"><g><svg viewBox="0 0 395.52 121.26541257934215" height="121.26541257934215" width="395.52"><g transform="matrix(1,0,0,1,0,0)"><svg width="395.52" viewBox="0.5000000000000036 -36.25 259.95 76.7" height="121.26541257934215" data-palette-color="url(#3d39edf6-3be4-4d65-b4f6-13a19d4ecaba)"><svg></svg><svg></svg><g class="wordmark-text-0" data-fill-palette-color="primary" id="SvgjsG1551"></g></svg></g></svg></g><g transform="matrix(1,0,0,1,0,134.50175389618)"><svg viewBox="0 0 232.20979199999996 28.912279102918585" height="28.912279102918585" width="232.20979199999996"><g transform="matrix(1,0,0,1,0,0)"><svg width="232.20979199999996" viewBox="0.49 -50.59 572.13 71.24000000000001" height="28.912279102918585" data-palette-color="url(#5fb23639-70c7-45be-9147-d6abf2612471)"></svg></g></svg></g></svg></g></svg></g><g transform="matrix(1,0,0,1,0,0.4085350824977354)"><svg viewBox="0 0 163.4140329990986 163.4140329990986" height="163.4140329990986" width="163.4140329990986"><g><svg xmlns="http://www.w3.org/2000/svg" xmlns:xlink="http://www.w3.org/1999/xlink" version="1.1" x="0" y="0" viewBox="14 14 72 72" enable-background="new 0 0 100 100" xml:space="preserve" height="163.4140329990986" width="163.4140329990986" class="icon-icon-0" data-fill-palette-color="accent" id="SvgjsSvg1550"></svg></g></svg></g></svg></g><defs><mask></mask></defs></svg></g></mask></svg></g></mask><linearGradient x1="0.054" x2="0.941" y1="0.5" y2="0.5" id="5fb23639-70c7-45be-9147-d6abf2612471"><stop stop-color="#8c8c8c" offset="0"></stop><stop stop-color="#e3e4e5" offset="0.498"></stop><stop stop-color="#8c8c8c" offset="1"></stop></linearGradient><rect width="395.52" height="110.00974852233439" fill="url(#5fb23639-70c7-45be-9147-d6abf2612471)" mask="url(#36711cb6-0a0c-4edd-a8b6-2053ea9de368)" data-fill-palette-color="secondary"></rect><mask id="f5e4f560-0149-4b03-b56b-a24ceb1a1aa9"><g id="SvgjsG1583"><svg viewBox="0 0 395.52 110.00974852233439" height="110.00974852233439" width="395.52"><g><svg viewBox="0 0 590.4629980158063 164.23110316409407" height="110.00974852233439" width="395.52"><g></g><g transform="matrix(1,0,0,1,194.94299801580632,0.4085350824977354)"><svg viewBox="0 0 395.52 163.4140329990986" height="163.4140329990986" width="395.52"><g id="SvgjsG1582"><svg viewBox="0 0 395.52 163.4140329990986" height="163.4140329990986" width="395.52" id="SvgjsSvg1581"><g><svg viewBox="0 0 395.52 121.26541257934215" height="121.26541257934215" width="395.52"><g transform="matrix(1,0,0,1,0,0)"><svg width="395.52" viewBox="0.5000000000000036 -36.25 259.95 76.7" height="121.26541257934215" data-palette-color="url(#3d39edf6-3be4-4d65-b4f6-13a19d4ecaba)"><svg></svg><svg></svg><g class="wordmark-text-0" data-fill-palette-color="primary" id="SvgjsG1580"></g></svg></g></svg></g><g transform="matrix(1,0,0,1,0,134.50175389618)"><svg viewBox="0 0 232.20979199999996 28.912279102918585" height="28.912279102918585" width="232.20979199999996"><g transform="matrix(1,0,0,1,0,0)"><svg width="232.20979199999996" viewBox="0.49 -50.59 572.13 71.24000000000001" height="28.912279102918585" data-palette-color="url(#5fb23639-70c7-45be-9147-d6abf2612471)"></svg></g></svg></g></svg></g></svg></g><g transform="matrix(1,0,0,1,0,0.4085350824977354)"><svg viewBox="0 0 163.4140329990986 163.4140329990986" height="163.4140329990986" width="163.4140329990986"><g><svg xmlns="http://www.w3.org/2000/svg" xmlns:xlink="http://www.w3.org/1999/xlink" version="1.1" x="0" y="0" viewBox="14 14 72 72" enable-background="new 0 0 100 100" xml:space="preserve" height="163.4140329990986" width="163.4140329990986" class="icon-icon-0" data-fill-palette-color="accent" id="SvgjsSvg1579"><polygon points="86,14 68,14 50,32 32,14 14,14 14,32 32,50 14,68 14,86 32,86 50,68 68,86 86,86 86,68 68,50 86,32 " fill="white"></polygon></svg></g></svg></g></svg></g><defs><mask></mask></defs><mask><g id="SvgjsG1578"><svg viewBox="0 0 395.52 110.00974852233439" height="110.00974852233439" width="395.52"><g><svg viewBox="0 0 590.4629980158063 164.23110316409407" height="110.00974852233439" width="395.52"><g></g><g transform="matrix(1,0,0,1,194.94299801580632,0.4085350824977354)"><svg viewBox="0 0 395.52 163.4140329990986" height="163.4140329990986" width="395.52"><g id="SvgjsG1576"><svg viewBox="0 0 395.52 163.4140329990986" height="163.4140329990986" width="395.52" id="SvgjsSvg1575"><g><svg viewBox="0 0 395.52 121.26541257934215" height="121.26541257934215" width="395.52"><g transform="matrix(1,0,0,1,0,0)"><svg width="395.52" viewBox="0.5000000000000036 -36.25 259.95 76.7" height="121.26541257934215" data-palette-color="url(#3d39edf6-3be4-4d65-b4f6-13a19d4ecaba)"><svg></svg><svg></svg><g class="wordmark-text-0" data-fill-palette-color="primary" id="SvgjsG1574"></g></svg></g></svg></g><g transform="matrix(1,0,0,1,0,134.50175389618)"><svg viewBox="0 0 232.20979199999996 28.912279102918585" height="28.912279102918585" width="232.20979199999996"><g transform="matrix(1,0,0,1,0,0)"><svg width="232.20979199999996" viewBox="0.49 -50.59 572.13 71.24000000000001" height="28.912279102918585" data-palette-color="url(#5fb23639-70c7-45be-9147-d6abf2612471)"></svg></g></svg></g></svg></g></svg></g><g transform="matrix(1,0,0,1,0,0.4085350824977354)"><svg viewBox="0 0 163.4140329990986 163.4140329990986" height="163.4140329990986" width="163.4140329990986"><g><svg xmlns="http://www.w3.org/2000/svg" xmlns:xlink="http://www.w3.org/1999/xlink" version="1.1" x="0" y="0" viewBox="14 14 72 72" enable-background="new 0 0 100 100" xml:space="preserve" height="163.4140329990986" width="163.4140329990986" class="icon-icon-0" data-fill-palette-color="accent" id="SvgjsSvg1573"></svg></g></svg></g></svg></g><defs><mask></mask></defs></svg></g></mask><mask><g id="SvgjsG1572"><svg viewBox="0 0 395.52 110.00974852233439" height="110.00974852233439" width="395.52"><g><svg viewBox="0 0 590.4629980158063 164.23110316409407" height="110.00974852233439" width="395.52"><g></g><g transform="matrix(1,0,0,1,194.94299801580632,0.4085350824977354)"><svg viewBox="0 0 395.52 163.4140329990986" height="163.4140329990986" width="395.52"><g id="SvgjsG1571"><svg viewBox="0 0 395.52 163.4140329990986" height="163.4140329990986" width="395.52" id="SvgjsSvg1570"><g><svg viewBox="0 0 395.52 121.26541257934215" height="121.26541257934215" width="395.52"><g transform="matrix(1,0,0,1,0,0)"><svg width="395.52" viewBox="0.5000000000000036 -36.25 259.95 76.7" height="121.26541257934215" data-palette-color="url(#3d39edf6-3be4-4d65-b4f6-13a19d4ecaba)"><svg></svg><svg></svg><g class="wordmark-text-0" data-fill-palette-color="primary" id="SvgjsG1569"></g></svg></g></svg></g><g transform="matrix(1,0,0,1,0,134.50175389618)"><svg viewBox="0 0 232.20979199999996 28.912279102918585" height="28.912279102918585" width="232.20979199999996"><g transform="matrix(1,0,0,1,0,0)"><svg width="232.20979199999996" viewBox="0.49 -50.59 572.13 71.24000000000001" height="28.912279102918585" data-palette-color="url(#5fb23639-70c7-45be-9147-d6abf2612471)"></svg></g></svg></g></svg></g></svg></g><g transform="matrix(1,0,0,1,0,0.4085350824977354)"><svg viewBox="0 0 163.4140329990986 163.4140329990986" height="163.4140329990986" width="163.4140329990986"><g><svg xmlns="http://www.w3.org/2000/svg" xmlns:xlink="http://www.w3.org/1999/xlink" version="1.1" x="0" y="0" viewBox="14 14 72 72" enable-background="new 0 0 100 100" xml:space="preserve" height="163.4140329990986" width="163.4140329990986" class="icon-icon-0" data-fill-palette-color="accent" id="SvgjsSvg1567"></svg></g></svg></g></svg></g><defs><mask></mask></defs><mask><g id="SvgjsG1566"><svg viewBox="0 0 395.52 110.00974852233439" height="110.00974852233439" width="395.52"><g><svg viewBox="0 0 590.4629980158063 164.23110316409407" height="110.00974852233439" width="395.52"><g></g><g transform="matrix(1,0,0,1,194.94299801580632,0.4085350824977354)"><svg viewBox="0 0 395.52 163.4140329990986" height="163.4140329990986" width="395.52"><g id="SvgjsG1565"><svg viewBox="0 0 395.52 163.4140329990986" height="163.4140329990986" width="395.52" id="SvgjsSvg1564"><g><svg viewBox="0 0 395.52 121.26541257934215" height="121.26541257934215" width="395.52"><g transform="matrix(1,0,0,1,0,0)"><svg width="395.52" viewBox="0.5000000000000036 -36.25 259.95 76.7" height="121.26541257934215" data-palette-color="url(#3d39edf6-3be4-4d65-b4f6-13a19d4ecaba)"><svg></svg><svg></svg><g class="wordmark-text-0" data-fill-palette-color="primary" id="SvgjsG1563"></g></svg></g></svg></g><g transform="matrix(1,0,0,1,0,134.50175389618)"><svg viewBox="0 0 232.20979199999996 28.912279102918585" height="28.912279102918585" width="232.20979199999996"><g transform="matrix(1,0,0,1,0,0)"><svg width="232.20979199999996" viewBox="0.49 -50.59 572.13 71.24000000000001" height="28.912279102918585" data-palette-color="url(#5fb23639-70c7-45be-9147-d6abf2612471)"></svg></g></svg></g></svg></g></svg></g><g transform="matrix(1,0,0,1,0,0.4085350824977354)"><svg viewBox="0 0 163.4140329990986 163.4140329990986" height="163.4140329990986" width="163.4140329990986"><g><svg xmlns="http://www.w3.org/2000/svg" xmlns:xlink="http://www.w3.org/1999/xlink" version="1.1" x="0" y="0" viewBox="14 14 72 72" enable-background="new 0 0 100 100" xml:space="preserve" height="163.4140329990986" width="163.4140329990986" class="icon-icon-0" data-fill-palette-color="accent" id="SvgjsSvg1562"></svg></g></svg></g></svg></g><defs><mask></mask></defs></svg></g></mask></svg></g></mask></svg></g></mask><linearGradient x1="0" x2="1" y1="0.548" y2="0.55" id="7e942f6e-2912-4c0f-a5b1-7522701fa3b7"><stop stop-color="#ff6cab" offset="0"></stop><stop stop-color="#7366ff" offset="1"></stop></linearGradient><rect width="395.52" height="110.00974852233439" fill="url(#7e942f6e-2912-4c0f-a5b1-7522701fa3b7)" mask="url(#f5e4f560-0149-4b03-b56b-a24ceb1a1aa9)" data-fill-palette-color="accent"></rect></svg><rect width="395.52" height="110.00974852233439" fill="none" stroke="none" visibility="hidden"></rect></g></svg></g></svg>